<mxfile host="app.diagrams.net" modified="2024-05-04T19:16:34.149Z" agent="Mozilla/5.0 (X11; Linux x86_64) AppleWebKit/537.36 (KHTML, like Gecko) Chrome/123.0.0.0 Safari/537.36" etag="khVlTBliy3bO8CKGKTnR" version="24.3.1" type="github">
  <diagram id="R2lEEEUBdFMjLlhIrx00" name="Page-1">
    <mxGraphModel dx="5062" dy="3056" grid="1" gridSize="10" guides="1" tooltips="1" connect="1" arrows="1" fold="1" page="1" pageScale="1" pageWidth="850" pageHeight="1100" math="0" shadow="0" extFonts="Permanent Marker^https://fonts.googleapis.com/css?family=Permanent+Marker">
      <root>
        <mxCell id="0" />
        <mxCell id="1" parent="0" />
        <mxCell id="MHSS6djbWjyrjED063CA-14" value="Animal" style="whiteSpace=wrap;html=1;" parent="1" vertex="1">
          <mxGeometry x="-199" y="-79.91" width="75" height="40" as="geometry" />
        </mxCell>
        <mxCell id="edTjm4dISCqz6r1TiSTo-25" value="Gangue" style="whiteSpace=wrap;html=1;align=center;" parent="1" vertex="1">
          <mxGeometry x="-680" y="1038" width="120" height="40" as="geometry" />
        </mxCell>
        <mxCell id="edTjm4dISCqz6r1TiSTo-26" value="participa" style="shape=rhombus;perimeter=rhombusPerimeter;whiteSpace=wrap;html=1;align=center;" parent="1" vertex="1">
          <mxGeometry x="-467.5" y="1028" width="120" height="60" as="geometry" />
        </mxCell>
        <mxCell id="edTjm4dISCqz6r1TiSTo-37" value="" style="endArrow=none;html=1;rounded=0;exitX=1;exitY=0.5;exitDx=0;exitDy=0;entryX=0;entryY=0.5;entryDx=0;entryDy=0;" parent="1" source="edTjm4dISCqz6r1TiSTo-25" target="edTjm4dISCqz6r1TiSTo-26" edge="1">
          <mxGeometry relative="1" as="geometry">
            <mxPoint x="690" y="-70" as="sourcePoint" />
            <mxPoint x="850" y="-70" as="targetPoint" />
          </mxGeometry>
        </mxCell>
        <mxCell id="edTjm4dISCqz6r1TiSTo-55" value="Jogador (PC)" style="whiteSpace=wrap;html=1;align=center;" parent="1" vertex="1">
          <mxGeometry x="10" y="486.8800000000001" width="100" height="40" as="geometry" />
        </mxCell>
        <mxCell id="edTjm4dISCqz6r1TiSTo-56" value="NPC" style="whiteSpace=wrap;html=1;align=center;" parent="1" vertex="1">
          <mxGeometry x="214" y="816.7499999999999" width="100" height="40" as="geometry" />
        </mxCell>
        <mxCell id="7i5WLGqGZnLkVZAE3K9o-9" value="" style="endArrow=none;html=1;rounded=0;entryX=0.5;entryY=1;entryDx=0;entryDy=0;exitX=1;exitY=0.5;exitDx=0;exitDy=0;" parent="1" source="zVHzj3ecezakpNuDU_De-9" target="MHSS6djbWjyrjED063CA-14" edge="1">
          <mxGeometry width="50" height="50" relative="1" as="geometry">
            <mxPoint x="-143.75" y="-25.86999999999989" as="sourcePoint" />
            <mxPoint x="-58.75" y="-75.87" as="targetPoint" />
          </mxGeometry>
        </mxCell>
        <mxCell id="edTjm4dISCqz6r1TiSTo-88" value="confrontar" style="shape=rhombus;perimeter=rhombusPerimeter;whiteSpace=wrap;html=1;align=center;" parent="1" vertex="1">
          <mxGeometry x="-840" y="1029.5" width="120" height="60" as="geometry" />
        </mxCell>
        <mxCell id="edTjm4dISCqz6r1TiSTo-89" value="" style="endArrow=none;html=1;rounded=0;exitX=0.005;exitY=0.61;exitDx=0;exitDy=0;entryX=0.5;entryY=0;entryDx=0;entryDy=0;exitPerimeter=0;" parent="1" source="edTjm4dISCqz6r1TiSTo-25" target="edTjm4dISCqz6r1TiSTo-88" edge="1">
          <mxGeometry relative="1" as="geometry">
            <mxPoint x="700" y="-140" as="sourcePoint" />
            <mxPoint x="860" y="-140" as="targetPoint" />
          </mxGeometry>
        </mxCell>
        <mxCell id="edTjm4dISCqz6r1TiSTo-90" value="" style="endArrow=none;html=1;rounded=0;exitX=-0.002;exitY=0.595;exitDx=0;exitDy=0;entryX=0.5;entryY=1;entryDx=0;entryDy=0;exitPerimeter=0;" parent="1" source="edTjm4dISCqz6r1TiSTo-25" target="edTjm4dISCqz6r1TiSTo-88" edge="1">
          <mxGeometry relative="1" as="geometry">
            <mxPoint x="690" y="-160" as="sourcePoint" />
            <mxPoint x="850" y="-160" as="targetPoint" />
          </mxGeometry>
        </mxCell>
        <mxCell id="94cfyis6TtCI4MxM053h-14" style="edgeStyle=none;curved=1;rounded=0;orthogonalLoop=1;jettySize=auto;html=1;exitX=0.5;exitY=0;exitDx=0;exitDy=0;fontSize=12;startSize=8;endSize=8;" parent="1" edge="1">
          <mxGeometry relative="1" as="geometry">
            <mxPoint x="1346.5" y="380" as="sourcePoint" />
            <mxPoint x="1346.5" y="380" as="targetPoint" />
          </mxGeometry>
        </mxCell>
        <mxCell id="zVHzj3ecezakpNuDU_De-6" value="ataca" style="shape=rhombus;perimeter=rhombusPerimeter;whiteSpace=wrap;html=1;align=center;" parent="1" vertex="1">
          <mxGeometry x="-300" y="223.75" width="120" height="60" as="geometry" />
        </mxCell>
        <mxCell id="zVHzj3ecezakpNuDU_De-7" value="" style="endArrow=none;html=1;rounded=0;exitX=0.5;exitY=1;exitDx=0;exitDy=0;entryX=0.5;entryY=0;entryDx=0;entryDy=0;" parent="1" source="y91Bqe_7xXxEDmseq83t-1" target="zVHzj3ecezakpNuDU_De-6" edge="1">
          <mxGeometry relative="1" as="geometry">
            <mxPoint x="-220" y="120" as="sourcePoint" />
            <mxPoint x="-250" y="160" as="targetPoint" />
          </mxGeometry>
        </mxCell>
        <mxCell id="zVHzj3ecezakpNuDU_De-9" value="" style="triangle;whiteSpace=wrap;html=1;direction=north;" parent="1" vertex="1">
          <mxGeometry x="-175.24999999999977" y="-12.750000000000004" width="27.5" height="27.5" as="geometry" />
        </mxCell>
        <mxCell id="y91Bqe_7xXxEDmseq83t-1" value="Hostil" style="whiteSpace=wrap;html=1;" parent="1" vertex="1">
          <mxGeometry x="-280" y="41" width="80" height="40" as="geometry" />
        </mxCell>
        <mxCell id="y91Bqe_7xXxEDmseq83t-2" value="AmigÃ¡vel" style="whiteSpace=wrap;html=1;" parent="1" vertex="1">
          <mxGeometry x="-118.75" y="40" width="80" height="40" as="geometry" />
        </mxCell>
        <mxCell id="y91Bqe_7xXxEDmseq83t-3" value="" style="endArrow=none;html=1;rounded=0;exitX=1;exitY=0.5;exitDx=0;exitDy=0;entryX=0;entryY=0.25;entryDx=0;entryDy=0;" parent="1" source="y91Bqe_7xXxEDmseq83t-1" target="zVHzj3ecezakpNuDU_De-9" edge="1">
          <mxGeometry relative="1" as="geometry">
            <mxPoint x="-210" as="sourcePoint" />
            <mxPoint x="-50" as="targetPoint" />
            <Array as="points">
              <mxPoint x="-168" y="61" />
            </Array>
          </mxGeometry>
        </mxCell>
        <mxCell id="y91Bqe_7xXxEDmseq83t-4" value="" style="endArrow=none;html=1;rounded=0;exitX=0.002;exitY=0.622;exitDx=0;exitDy=0;exitPerimeter=0;entryX=0;entryY=0.5;entryDx=0;entryDy=0;" parent="1" source="zVHzj3ecezakpNuDU_De-9" target="y91Bqe_7xXxEDmseq83t-2" edge="1">
          <mxGeometry relative="1" as="geometry">
            <mxPoint x="-60" y="-10" as="sourcePoint" />
            <mxPoint x="100" y="-10" as="targetPoint" />
            <Array as="points">
              <mxPoint x="-158" y="60" />
            </Array>
          </mxGeometry>
        </mxCell>
        <mxCell id="y91Bqe_7xXxEDmseq83t-41" value="(T, E)" style="text;html=1;align=center;verticalAlign=middle;whiteSpace=wrap;rounded=0;" parent="1" vertex="1">
          <mxGeometry x="-166" y="-14.75" width="60" height="30" as="geometry" />
        </mxCell>
        <mxCell id="y91Bqe_7xXxEDmseq83t-42" value="doma" style="shape=rhombus;perimeter=rhombusPerimeter;whiteSpace=wrap;html=1;align=center;" parent="1" vertex="1">
          <mxGeometry x="-138.75" y="223.75" width="120" height="60" as="geometry" />
        </mxCell>
        <mxCell id="y91Bqe_7xXxEDmseq83t-43" value="" style="endArrow=none;html=1;rounded=0;exitX=0.5;exitY=1;exitDx=0;exitDy=0;entryX=0.5;entryY=0;entryDx=0;entryDy=0;" parent="1" source="y91Bqe_7xXxEDmseq83t-2" target="y91Bqe_7xXxEDmseq83t-42" edge="1">
          <mxGeometry relative="1" as="geometry">
            <mxPoint x="-150" y="140" as="sourcePoint" />
            <mxPoint x="10" y="140" as="targetPoint" />
          </mxGeometry>
        </mxCell>
        <mxCell id="y91Bqe_7xXxEDmseq83t-46" value="Ataque" style="whiteSpace=wrap;html=1;" parent="1" vertex="1">
          <mxGeometry x="-640" y="40" width="80" height="40" as="geometry" />
        </mxCell>
        <mxCell id="y91Bqe_7xXxEDmseq83t-47" value="possui" style="shape=rhombus;perimeter=rhombusPerimeter;whiteSpace=wrap;html=1;align=center;" parent="1" vertex="1">
          <mxGeometry x="-485" y="30" width="120" height="60" as="geometry" />
        </mxCell>
        <mxCell id="y91Bqe_7xXxEDmseq83t-50" value="" style="endArrow=none;html=1;rounded=0;exitX=1;exitY=0.5;exitDx=0;exitDy=0;entryX=0;entryY=0.5;entryDx=0;entryDy=0;" parent="1" source="y91Bqe_7xXxEDmseq83t-47" target="y91Bqe_7xXxEDmseq83t-1" edge="1">
          <mxGeometry relative="1" as="geometry">
            <mxPoint x="-510" y="-60" as="sourcePoint" />
            <mxPoint x="-350" y="-60" as="targetPoint" />
          </mxGeometry>
        </mxCell>
        <mxCell id="y91Bqe_7xXxEDmseq83t-51" value="N" style="resizable=0;html=1;whiteSpace=wrap;align=right;verticalAlign=bottom;" parent="y91Bqe_7xXxEDmseq83t-50" connectable="0" vertex="1">
          <mxGeometry x="1" relative="1" as="geometry">
            <mxPoint x="-37" as="offset" />
          </mxGeometry>
        </mxCell>
        <mxCell id="y91Bqe_7xXxEDmseq83t-52" value="" style="endArrow=none;html=1;rounded=0;exitX=1;exitY=0.5;exitDx=0;exitDy=0;entryX=-0.023;entryY=0.496;entryDx=0;entryDy=0;entryPerimeter=0;" parent="1" source="y91Bqe_7xXxEDmseq83t-46" target="y91Bqe_7xXxEDmseq83t-47" edge="1">
          <mxGeometry relative="1" as="geometry">
            <mxPoint x="-550" y="-30" as="sourcePoint" />
            <mxPoint x="-390" y="-30" as="targetPoint" />
          </mxGeometry>
        </mxCell>
        <mxCell id="y91Bqe_7xXxEDmseq83t-53" value="N" style="resizable=0;html=1;whiteSpace=wrap;align=right;verticalAlign=bottom;" parent="y91Bqe_7xXxEDmseq83t-52" connectable="0" vertex="1">
          <mxGeometry x="1" relative="1" as="geometry">
            <mxPoint x="-25" as="offset" />
          </mxGeometry>
        </mxCell>
        <mxCell id="y91Bqe_7xXxEDmseq83t-78" value="InstÃ¢ncia de Animal" style="shape=ext;margin=3;double=1;whiteSpace=wrap;html=1;align=center;" parent="1" vertex="1">
          <mxGeometry x="110" y="-79.91000000000001" width="100" height="40" as="geometry" />
        </mxCell>
        <mxCell id="y91Bqe_7xXxEDmseq83t-79" value="possui" style="shape=rhombus;double=1;perimeter=rhombusPerimeter;whiteSpace=wrap;html=1;align=center;" parent="1" vertex="1">
          <mxGeometry x="-64.75" y="-89.91" width="120" height="60" as="geometry" />
        </mxCell>
        <mxCell id="y91Bqe_7xXxEDmseq83t-81" value="" style="endArrow=none;html=1;rounded=0;exitX=1;exitY=0.5;exitDx=0;exitDy=0;entryX=0;entryY=0.5;entryDx=0;entryDy=0;" parent="1" source="MHSS6djbWjyrjED063CA-14" target="y91Bqe_7xXxEDmseq83t-79" edge="1">
          <mxGeometry relative="1" as="geometry">
            <mxPoint x="90" y="-130" as="sourcePoint" />
            <mxPoint x="250" y="-130" as="targetPoint" />
          </mxGeometry>
        </mxCell>
        <mxCell id="y91Bqe_7xXxEDmseq83t-82" value="1" style="resizable=0;html=1;whiteSpace=wrap;align=right;verticalAlign=bottom;" parent="y91Bqe_7xXxEDmseq83t-81" connectable="0" vertex="1">
          <mxGeometry x="1" relative="1" as="geometry">
            <mxPoint x="-21" as="offset" />
          </mxGeometry>
        </mxCell>
        <mxCell id="y91Bqe_7xXxEDmseq83t-83" value="" style="shape=link;html=1;rounded=0;exitX=1;exitY=0.5;exitDx=0;exitDy=0;entryX=0;entryY=0.5;entryDx=0;entryDy=0;" parent="1" source="y91Bqe_7xXxEDmseq83t-79" target="y91Bqe_7xXxEDmseq83t-78" edge="1">
          <mxGeometry relative="1" as="geometry">
            <mxPoint x="150" y="-130" as="sourcePoint" />
            <mxPoint x="310" y="-130" as="targetPoint" />
          </mxGeometry>
        </mxCell>
        <mxCell id="y91Bqe_7xXxEDmseq83t-84" value="N" style="resizable=0;html=1;whiteSpace=wrap;align=right;verticalAlign=bottom;" parent="y91Bqe_7xXxEDmseq83t-83" connectable="0" vertex="1">
          <mxGeometry x="1" relative="1" as="geometry">
            <mxPoint x="-15" as="offset" />
          </mxGeometry>
        </mxCell>
        <mxCell id="y91Bqe_7xXxEDmseq83t-95" value="RegiÃ£o" style="whiteSpace=wrap;html=1;align=center;" parent="1" vertex="1">
          <mxGeometry x="124" y="267" width="80" height="45" as="geometry" />
        </mxCell>
        <mxCell id="y91Bqe_7xXxEDmseq83t-96" value="abriga" style="shape=rhombus;perimeter=rhombusPerimeter;whiteSpace=wrap;html=1;align=center;" parent="1" vertex="1">
          <mxGeometry x="110" y="15.25" width="120" height="60" as="geometry" />
        </mxCell>
        <mxCell id="y91Bqe_7xXxEDmseq83t-98" value="abriga" style="shape=rhombus;perimeter=rhombusPerimeter;whiteSpace=wrap;html=1;align=center;" parent="1" vertex="1">
          <mxGeometry x="-49" y="353" width="120" height="60" as="geometry" />
        </mxCell>
        <mxCell id="y91Bqe_7xXxEDmseq83t-100" value="" style="endArrow=none;html=1;rounded=0;exitX=0.5;exitY=0;exitDx=0;exitDy=0;entryX=0.593;entryY=0.991;entryDx=0;entryDy=0;entryPerimeter=0;" parent="1" source="y91Bqe_7xXxEDmseq83t-96" target="y91Bqe_7xXxEDmseq83t-78" edge="1">
          <mxGeometry relative="1" as="geometry">
            <mxPoint x="-20" y="160" as="sourcePoint" />
            <mxPoint x="140" y="160" as="targetPoint" />
          </mxGeometry>
        </mxCell>
        <mxCell id="y91Bqe_7xXxEDmseq83t-101" value="N" style="resizable=0;html=1;whiteSpace=wrap;align=right;verticalAlign=bottom;" parent="y91Bqe_7xXxEDmseq83t-100" connectable="0" vertex="1">
          <mxGeometry x="1" relative="1" as="geometry">
            <mxPoint y="25" as="offset" />
          </mxGeometry>
        </mxCell>
        <mxCell id="y91Bqe_7xXxEDmseq83t-102" value="" style="endArrow=none;html=1;rounded=0;exitX=0.5;exitY=1;exitDx=0;exitDy=0;entryX=0.57;entryY=-0.007;entryDx=0;entryDy=0;entryPerimeter=0;" parent="1" source="y91Bqe_7xXxEDmseq83t-96" target="y91Bqe_7xXxEDmseq83t-95" edge="1">
          <mxGeometry relative="1" as="geometry">
            <mxPoint x="80" y="120" as="sourcePoint" />
            <mxPoint x="240" y="120" as="targetPoint" />
          </mxGeometry>
        </mxCell>
        <mxCell id="y91Bqe_7xXxEDmseq83t-103" value="1" style="resizable=0;html=1;whiteSpace=wrap;align=right;verticalAlign=bottom;" parent="y91Bqe_7xXxEDmseq83t-102" connectable="0" vertex="1">
          <mxGeometry x="1" relative="1" as="geometry" />
        </mxCell>
        <mxCell id="y91Bqe_7xXxEDmseq83t-97" value="abriga" style="shape=rhombus;perimeter=rhombusPerimeter;whiteSpace=wrap;html=1;align=center;" parent="1" vertex="1">
          <mxGeometry x="204" y="350" width="120" height="60" as="geometry" />
        </mxCell>
        <mxCell id="y91Bqe_7xXxEDmseq83t-105" value="InstÃ¢ncia de NPC" style="shape=ext;margin=3;double=1;whiteSpace=wrap;html=1;align=center;" parent="1" vertex="1">
          <mxGeometry x="214" y="486.88" width="100" height="40" as="geometry" />
        </mxCell>
        <mxCell id="y91Bqe_7xXxEDmseq83t-106" value="" style="endArrow=none;html=1;rounded=0;entryX=0.074;entryY=1;entryDx=0;entryDy=0;exitX=0.5;exitY=0;exitDx=0;exitDy=0;entryPerimeter=0;" parent="1" source="y91Bqe_7xXxEDmseq83t-98" target="y91Bqe_7xXxEDmseq83t-95" edge="1">
          <mxGeometry relative="1" as="geometry">
            <mxPoint x="50" y="260" as="sourcePoint" />
            <mxPoint x="210" y="260" as="targetPoint" />
            <Array as="points">
              <mxPoint x="11" y="320" />
              <mxPoint x="130" y="320" />
            </Array>
          </mxGeometry>
        </mxCell>
        <mxCell id="y91Bqe_7xXxEDmseq83t-107" value="1" style="resizable=0;html=1;whiteSpace=wrap;align=right;verticalAlign=bottom;" parent="y91Bqe_7xXxEDmseq83t-106" connectable="0" vertex="1">
          <mxGeometry x="1" relative="1" as="geometry">
            <mxPoint y="23" as="offset" />
          </mxGeometry>
        </mxCell>
        <mxCell id="y91Bqe_7xXxEDmseq83t-109" value="" style="endArrow=none;html=1;rounded=0;exitX=0.5;exitY=0;exitDx=0;exitDy=0;entryX=0.611;entryY=0.998;entryDx=0;entryDy=0;entryPerimeter=0;" parent="1" source="y91Bqe_7xXxEDmseq83t-97" target="y91Bqe_7xXxEDmseq83t-95" edge="1">
          <mxGeometry relative="1" as="geometry">
            <mxPoint x="150" y="340" as="sourcePoint" />
            <mxPoint x="240" y="260" as="targetPoint" />
            <Array as="points">
              <mxPoint x="173" y="350" />
            </Array>
          </mxGeometry>
        </mxCell>
        <mxCell id="y91Bqe_7xXxEDmseq83t-110" value="1" style="resizable=0;html=1;whiteSpace=wrap;align=right;verticalAlign=bottom;" parent="y91Bqe_7xXxEDmseq83t-109" connectable="0" vertex="1">
          <mxGeometry x="1" relative="1" as="geometry">
            <mxPoint y="15" as="offset" />
          </mxGeometry>
        </mxCell>
        <mxCell id="y91Bqe_7xXxEDmseq83t-111" value="" style="endArrow=none;html=1;rounded=0;exitX=0.5;exitY=1;exitDx=0;exitDy=0;entryX=0.5;entryY=0;entryDx=0;entryDy=0;" parent="1" source="y91Bqe_7xXxEDmseq83t-97" target="y91Bqe_7xXxEDmseq83t-105" edge="1">
          <mxGeometry relative="1" as="geometry">
            <mxPoint x="100" y="460" as="sourcePoint" />
            <mxPoint x="260" y="460" as="targetPoint" />
          </mxGeometry>
        </mxCell>
        <mxCell id="y91Bqe_7xXxEDmseq83t-112" value="N" style="resizable=0;html=1;whiteSpace=wrap;align=right;verticalAlign=bottom;" parent="y91Bqe_7xXxEDmseq83t-111" connectable="0" vertex="1">
          <mxGeometry x="1" relative="1" as="geometry" />
        </mxCell>
        <mxCell id="y91Bqe_7xXxEDmseq83t-113" value="" style="endArrow=none;html=1;rounded=0;exitX=0.5;exitY=1;exitDx=0;exitDy=0;entryX=0;entryY=0;entryDx=0;entryDy=0;" parent="1" source="y91Bqe_7xXxEDmseq83t-98" target="edTjm4dISCqz6r1TiSTo-55" edge="1">
          <mxGeometry relative="1" as="geometry">
            <mxPoint x="80" y="470" as="sourcePoint" />
            <mxPoint x="240" y="470" as="targetPoint" />
          </mxGeometry>
        </mxCell>
        <mxCell id="y91Bqe_7xXxEDmseq83t-115" value="" style="endArrow=none;html=1;rounded=0;exitX=0.5;exitY=1;exitDx=0;exitDy=0;entryX=-0.005;entryY=0.403;entryDx=0;entryDy=0;entryPerimeter=0;" parent="1" source="y91Bqe_7xXxEDmseq83t-42" target="edTjm4dISCqz6r1TiSTo-55" edge="1">
          <mxGeometry relative="1" as="geometry">
            <mxPoint x="-170" y="400" as="sourcePoint" />
            <mxPoint x="-10" y="400" as="targetPoint" />
            <Array as="points">
              <mxPoint x="-79" y="503" />
            </Array>
          </mxGeometry>
        </mxCell>
        <mxCell id="y91Bqe_7xXxEDmseq83t-116" value="" style="endArrow=none;html=1;rounded=0;exitX=0.5;exitY=1;exitDx=0;exitDy=0;entryX=0;entryY=0.75;entryDx=0;entryDy=0;" parent="1" source="zVHzj3ecezakpNuDU_De-6" target="edTjm4dISCqz6r1TiSTo-55" edge="1">
          <mxGeometry relative="1" as="geometry">
            <mxPoint x="-320" y="440" as="sourcePoint" />
            <mxPoint x="-160" y="440" as="targetPoint" />
            <Array as="points">
              <mxPoint x="-240" y="517" />
            </Array>
          </mxGeometry>
        </mxCell>
        <mxCell id="y91Bqe_7xXxEDmseq83t-117" value="possui" style="shape=rhombus;double=1;perimeter=rhombusPerimeter;whiteSpace=wrap;html=1;align=center;" parent="1" vertex="1">
          <mxGeometry x="204" y="576.88" width="120" height="60" as="geometry" />
        </mxCell>
        <mxCell id="y91Bqe_7xXxEDmseq83t-119" value="" style="endArrow=none;html=1;rounded=0;exitX=0.5;exitY=1;exitDx=0;exitDy=0;entryX=0.5;entryY=0;entryDx=0;entryDy=0;" parent="1" source="y91Bqe_7xXxEDmseq83t-117" target="edTjm4dISCqz6r1TiSTo-56" edge="1">
          <mxGeometry relative="1" as="geometry">
            <mxPoint x="310" y="670" as="sourcePoint" />
            <mxPoint x="470" y="670" as="targetPoint" />
          </mxGeometry>
        </mxCell>
        <mxCell id="y91Bqe_7xXxEDmseq83t-120" value="1" style="resizable=0;html=1;whiteSpace=wrap;align=right;verticalAlign=bottom;" parent="y91Bqe_7xXxEDmseq83t-119" connectable="0" vertex="1">
          <mxGeometry x="1" relative="1" as="geometry" />
        </mxCell>
        <mxCell id="y91Bqe_7xXxEDmseq83t-121" value="" style="shape=link;html=1;rounded=0;exitX=0.5;exitY=0;exitDx=0;exitDy=0;entryX=0.5;entryY=1;entryDx=0;entryDy=0;" parent="1" source="y91Bqe_7xXxEDmseq83t-117" target="y91Bqe_7xXxEDmseq83t-105" edge="1">
          <mxGeometry relative="1" as="geometry">
            <mxPoint x="430" y="670" as="sourcePoint" />
            <mxPoint x="590" y="670" as="targetPoint" />
          </mxGeometry>
        </mxCell>
        <mxCell id="y91Bqe_7xXxEDmseq83t-122" value="N" style="resizable=0;html=1;whiteSpace=wrap;align=right;verticalAlign=bottom;" parent="y91Bqe_7xXxEDmseq83t-121" connectable="0" vertex="1">
          <mxGeometry x="1" relative="1" as="geometry">
            <mxPoint x="-2" y="21" as="offset" />
          </mxGeometry>
        </mxCell>
        <mxCell id="y91Bqe_7xXxEDmseq83t-123" value="acessa" style="shape=rhombus;perimeter=rhombusPerimeter;whiteSpace=wrap;html=1;align=center;" parent="1" vertex="1">
          <mxGeometry x="75" y="353" width="120" height="60" as="geometry" />
        </mxCell>
        <mxCell id="y91Bqe_7xXxEDmseq83t-127" value="" style="endArrow=none;html=1;rounded=0;exitX=1;exitY=0.5;exitDx=0;exitDy=0;entryX=0.5;entryY=1;entryDx=0;entryDy=0;" parent="1" source="edTjm4dISCqz6r1TiSTo-55" target="y91Bqe_7xXxEDmseq83t-123" edge="1">
          <mxGeometry relative="1" as="geometry">
            <mxPoint x="130" y="440" as="sourcePoint" />
            <mxPoint x="290" y="440" as="targetPoint" />
            <Array as="points">
              <mxPoint x="135" y="507" />
              <mxPoint x="135" y="440" />
            </Array>
          </mxGeometry>
        </mxCell>
        <mxCell id="y91Bqe_7xXxEDmseq83t-128" value="" style="endArrow=none;html=1;rounded=0;exitX=0.134;exitY=0.995;exitDx=0;exitDy=0;entryX=0.5;entryY=0;entryDx=0;entryDy=0;exitPerimeter=0;" parent="1" source="y91Bqe_7xXxEDmseq83t-95" target="y91Bqe_7xXxEDmseq83t-123" edge="1">
          <mxGeometry relative="1" as="geometry">
            <mxPoint x="200" y="340" as="sourcePoint" />
            <mxPoint x="360" y="340" as="targetPoint" />
          </mxGeometry>
        </mxCell>
        <mxCell id="y91Bqe_7xXxEDmseq83t-129" value="Personagem" style="whiteSpace=wrap;html=1;align=center;" parent="1" vertex="1">
          <mxGeometry x="-170" y="923.75" width="100" height="40" as="geometry" />
        </mxCell>
        <mxCell id="y91Bqe_7xXxEDmseq83t-130" value="" style="triangle;whiteSpace=wrap;html=1;direction=north;rotation=-180;" parent="1" vertex="1">
          <mxGeometry x="68.75000000000023" y="823.2" width="27.5" height="27.5" as="geometry" />
        </mxCell>
        <mxCell id="y91Bqe_7xXxEDmseq83t-131" value="" style="endArrow=none;html=1;rounded=0;exitX=0.952;exitY=-0.007;exitDx=0;exitDy=0;exitPerimeter=0;entryX=1;entryY=0.5;entryDx=0;entryDy=0;" parent="1" source="y91Bqe_7xXxEDmseq83t-129" target="y91Bqe_7xXxEDmseq83t-130" edge="1">
          <mxGeometry relative="1" as="geometry">
            <mxPoint x="-78.90000000000009" y="923.3499999999999" as="sourcePoint" />
            <mxPoint x="84.41750000000002" y="851.4149999999995" as="targetPoint" />
            <Array as="points">
              <mxPoint x="-75" y="880" />
              <mxPoint x="82" y="880" />
            </Array>
          </mxGeometry>
        </mxCell>
        <mxCell id="y91Bqe_7xXxEDmseq83t-132" value="" style="endArrow=none;html=1;rounded=0;exitX=0.683;exitY=1.017;exitDx=0;exitDy=0;exitPerimeter=0;entryX=0.009;entryY=0.591;entryDx=0;entryDy=0;entryPerimeter=0;" parent="1" source="edTjm4dISCqz6r1TiSTo-55" target="y91Bqe_7xXxEDmseq83t-130" edge="1">
          <mxGeometry relative="1" as="geometry">
            <mxPoint x="70" y="620" as="sourcePoint" />
            <mxPoint x="80" y="820" as="targetPoint" />
            <Array as="points">
              <mxPoint x="80" y="810" />
            </Array>
          </mxGeometry>
        </mxCell>
        <mxCell id="y91Bqe_7xXxEDmseq83t-134" value="(T, E)" style="text;strokeColor=none;fillColor=none;spacingLeft=4;spacingRight=4;overflow=hidden;rotatable=0;points=[[0,0.5],[1,0.5]];portConstraint=eastwest;fontSize=12;whiteSpace=wrap;html=1;" parent="1" vertex="1">
          <mxGeometry x="94.25" y="829.5" width="40" height="30" as="geometry" />
        </mxCell>
        <mxCell id="y91Bqe_7xXxEDmseq83t-135" value="possui" style="shape=rhombus;perimeter=rhombusPerimeter;whiteSpace=wrap;html=1;align=center;" parent="1" vertex="1">
          <mxGeometry x="-282" y="673.75" width="120" height="60" as="geometry" />
        </mxCell>
        <mxCell id="y91Bqe_7xXxEDmseq83t-136" value="InventÃ¡rio" style="shape=ext;margin=3;double=1;whiteSpace=wrap;html=1;align=center;" parent="1" vertex="1">
          <mxGeometry x="-570" y="683.75" width="120" height="40" as="geometry" />
        </mxCell>
        <mxCell id="y91Bqe_7xXxEDmseq83t-137" value="" style="endArrow=none;html=1;rounded=0;entryX=0.092;entryY=0.004;entryDx=0;entryDy=0;exitX=1;exitY=0.5;exitDx=0;exitDy=0;entryPerimeter=0;" parent="1" source="y91Bqe_7xXxEDmseq83t-135" target="y91Bqe_7xXxEDmseq83t-129" edge="1">
          <mxGeometry relative="1" as="geometry">
            <mxPoint x="-320" y="620" as="sourcePoint" />
            <mxPoint x="-160" y="620" as="targetPoint" />
          </mxGeometry>
        </mxCell>
        <mxCell id="y91Bqe_7xXxEDmseq83t-138" value="" style="shape=link;html=1;rounded=0;exitX=1;exitY=0.5;exitDx=0;exitDy=0;entryX=0;entryY=0.5;entryDx=0;entryDy=0;" parent="1" source="y91Bqe_7xXxEDmseq83t-136" target="y91Bqe_7xXxEDmseq83t-135" edge="1">
          <mxGeometry relative="1" as="geometry">
            <mxPoint x="-370" y="630" as="sourcePoint" />
            <mxPoint x="-210" y="630" as="targetPoint" />
          </mxGeometry>
        </mxCell>
        <mxCell id="y91Bqe_7xXxEDmseq83t-140" value="contÃ©m" style="shape=rhombus;perimeter=rhombusPerimeter;whiteSpace=wrap;html=1;align=center;" parent="1" vertex="1">
          <mxGeometry x="-568.12" y="526.88" width="116.25" height="60" as="geometry" />
        </mxCell>
        <mxCell id="y91Bqe_7xXxEDmseq83t-141" value="Item" style="whiteSpace=wrap;html=1;" parent="1" vertex="1">
          <mxGeometry x="-555" y="149" width="90" height="42" as="geometry" />
        </mxCell>
        <mxCell id="y91Bqe_7xXxEDmseq83t-142" value="InstÃ¢ncia de Item" style="shape=ext;margin=3;double=1;whiteSpace=wrap;html=1;align=center;" parent="1" vertex="1">
          <mxGeometry x="-570" y="420.25" width="120" height="40" as="geometry" />
        </mxCell>
        <mxCell id="y91Bqe_7xXxEDmseq83t-144" value="" style="endArrow=none;html=1;rounded=0;exitX=0.5;exitY=0;exitDx=0;exitDy=0;entryX=0.5;entryY=1;entryDx=0;entryDy=0;" parent="1" source="y91Bqe_7xXxEDmseq83t-140" target="y91Bqe_7xXxEDmseq83t-142" edge="1">
          <mxGeometry relative="1" as="geometry">
            <mxPoint x="-470" y="610" as="sourcePoint" />
            <mxPoint x="-310" y="610" as="targetPoint" />
          </mxGeometry>
        </mxCell>
        <mxCell id="y91Bqe_7xXxEDmseq83t-145" value="N" style="resizable=0;html=1;whiteSpace=wrap;align=right;verticalAlign=bottom;" parent="y91Bqe_7xXxEDmseq83t-144" connectable="0" vertex="1">
          <mxGeometry x="1" relative="1" as="geometry">
            <mxPoint y="16" as="offset" />
          </mxGeometry>
        </mxCell>
        <mxCell id="y91Bqe_7xXxEDmseq83t-146" value="" style="endArrow=none;html=1;rounded=0;exitX=0.5;exitY=1;exitDx=0;exitDy=0;entryX=0.5;entryY=0;entryDx=0;entryDy=0;" parent="1" source="y91Bqe_7xXxEDmseq83t-140" target="y91Bqe_7xXxEDmseq83t-136" edge="1">
          <mxGeometry relative="1" as="geometry">
            <mxPoint x="-460" y="620" as="sourcePoint" />
            <mxPoint x="-300" y="620" as="targetPoint" />
          </mxGeometry>
        </mxCell>
        <mxCell id="y91Bqe_7xXxEDmseq83t-147" value="N" style="resizable=0;html=1;whiteSpace=wrap;align=right;verticalAlign=bottom;" parent="y91Bqe_7xXxEDmseq83t-146" connectable="0" vertex="1">
          <mxGeometry x="1" relative="1" as="geometry" />
        </mxCell>
        <mxCell id="y91Bqe_7xXxEDmseq83t-148" value="contÃ©m" style="shape=rhombus;perimeter=rhombusPerimeter;whiteSpace=wrap;html=1;align=center;" parent="1" vertex="1">
          <mxGeometry x="-568.12" y="283.75" width="116.25" height="60" as="geometry" />
        </mxCell>
        <mxCell id="y91Bqe_7xXxEDmseq83t-149" value="" style="endArrow=none;html=1;rounded=0;exitX=0.5;exitY=1;exitDx=0;exitDy=0;entryX=0.5;entryY=0;entryDx=0;entryDy=0;" parent="1" source="y91Bqe_7xXxEDmseq83t-148" target="y91Bqe_7xXxEDmseq83t-142" edge="1">
          <mxGeometry relative="1" as="geometry">
            <mxPoint x="-430" y="380" as="sourcePoint" />
            <mxPoint x="-270" y="380" as="targetPoint" />
          </mxGeometry>
        </mxCell>
        <mxCell id="y91Bqe_7xXxEDmseq83t-150" value="N" style="resizable=0;html=1;whiteSpace=wrap;align=right;verticalAlign=bottom;" parent="y91Bqe_7xXxEDmseq83t-149" connectable="0" vertex="1">
          <mxGeometry x="1" relative="1" as="geometry" />
        </mxCell>
        <mxCell id="y91Bqe_7xXxEDmseq83t-151" value="" style="endArrow=none;html=1;rounded=0;exitX=0.5;exitY=0;exitDx=0;exitDy=0;entryX=0.5;entryY=1;entryDx=0;entryDy=0;" parent="1" source="y91Bqe_7xXxEDmseq83t-148" target="y91Bqe_7xXxEDmseq83t-141" edge="1">
          <mxGeometry relative="1" as="geometry">
            <mxPoint x="-520" y="260" as="sourcePoint" />
            <mxPoint x="-360" y="260" as="targetPoint" />
          </mxGeometry>
        </mxCell>
        <mxCell id="y91Bqe_7xXxEDmseq83t-152" value="1" style="resizable=0;html=1;whiteSpace=wrap;align=right;verticalAlign=bottom;" parent="y91Bqe_7xXxEDmseq83t-151" connectable="0" vertex="1">
          <mxGeometry x="1" relative="1" as="geometry">
            <mxPoint x="-1" y="16" as="offset" />
          </mxGeometry>
        </mxCell>
        <mxCell id="y91Bqe_7xXxEDmseq83t-156" value="utiliza" style="shape=rhombus;perimeter=rhombusPerimeter;whiteSpace=wrap;html=1;align=center;" parent="1" vertex="1">
          <mxGeometry x="-20" y="914" width="116.25" height="60" as="geometry" />
        </mxCell>
        <mxCell id="y91Bqe_7xXxEDmseq83t-158" value="Arma de Fogo" style="whiteSpace=wrap;html=1;align=center;" parent="1" vertex="1">
          <mxGeometry x="-19.999999999999986" y="1411.0000000000002" width="100" height="40" as="geometry" />
        </mxCell>
        <mxCell id="y91Bqe_7xXxEDmseq83t-162" value="" style="endArrow=none;html=1;rounded=0;exitX=1;exitY=0.5;exitDx=0;exitDy=0;entryX=0;entryY=0.5;entryDx=0;entryDy=0;" parent="1" source="y91Bqe_7xXxEDmseq83t-129" target="y91Bqe_7xXxEDmseq83t-156" edge="1">
          <mxGeometry relative="1" as="geometry">
            <mxPoint x="-120" y="760" as="sourcePoint" />
            <mxPoint x="40" y="760" as="targetPoint" />
          </mxGeometry>
        </mxCell>
        <mxCell id="y91Bqe_7xXxEDmseq83t-163" value="" style="endArrow=none;html=1;rounded=0;entryX=0;entryY=0.5;entryDx=0;entryDy=0;exitX=1;exitY=0.5;exitDx=0;exitDy=0;" parent="1" source="y91Bqe_7xXxEDmseq83t-156" target="FQAgYsz1G8o2xN7O9MeR-2" edge="1">
          <mxGeometry relative="1" as="geometry">
            <mxPoint x="-270" y="790" as="sourcePoint" />
            <mxPoint x="-110" y="790" as="targetPoint" />
          </mxGeometry>
        </mxCell>
        <mxCell id="y91Bqe_7xXxEDmseq83t-169" value="coleta" style="shape=rhombus;perimeter=rhombusPerimeter;whiteSpace=wrap;html=1;align=center;" parent="1" vertex="1">
          <mxGeometry x="-425" y="606.88" width="116.25" height="60" as="geometry" />
        </mxCell>
        <mxCell id="y91Bqe_7xXxEDmseq83t-170" value="" style="endArrow=none;html=1;rounded=0;exitX=0.5;exitY=0;exitDx=0;exitDy=0;entryX=1;entryY=0.5;entryDx=0;entryDy=0;" parent="1" source="y91Bqe_7xXxEDmseq83t-169" target="y91Bqe_7xXxEDmseq83t-142" edge="1">
          <mxGeometry relative="1" as="geometry">
            <mxPoint x="-500" y="537" as="sourcePoint" />
            <mxPoint x="-500" y="470" as="targetPoint" />
            <Array as="points">
              <mxPoint x="-367" y="440" />
            </Array>
          </mxGeometry>
        </mxCell>
        <mxCell id="y91Bqe_7xXxEDmseq83t-171" value="N" style="resizable=0;html=1;whiteSpace=wrap;align=right;verticalAlign=bottom;" parent="y91Bqe_7xXxEDmseq83t-170" connectable="0" vertex="1">
          <mxGeometry x="1" relative="1" as="geometry">
            <mxPoint x="12" y="18" as="offset" />
          </mxGeometry>
        </mxCell>
        <mxCell id="y91Bqe_7xXxEDmseq83t-172" value="" style="endArrow=none;html=1;rounded=0;exitX=0.397;exitY=0.003;exitDx=0;exitDy=0;entryX=1;entryY=0.5;entryDx=0;entryDy=0;exitPerimeter=0;" parent="1" source="y91Bqe_7xXxEDmseq83t-129" target="y91Bqe_7xXxEDmseq83t-169" edge="1">
          <mxGeometry relative="1" as="geometry">
            <mxPoint x="-490" y="547" as="sourcePoint" />
            <mxPoint x="-490" y="480" as="targetPoint" />
            <Array as="points">
              <mxPoint x="-130" y="637" />
            </Array>
          </mxGeometry>
        </mxCell>
        <mxCell id="y91Bqe_7xXxEDmseq83t-173" value="N" style="resizable=0;html=1;whiteSpace=wrap;align=right;verticalAlign=bottom;" parent="y91Bqe_7xXxEDmseq83t-172" connectable="0" vertex="1">
          <mxGeometry x="1" relative="1" as="geometry">
            <mxPoint y="16" as="offset" />
          </mxGeometry>
        </mxCell>
        <mxCell id="y91Bqe_7xXxEDmseq83t-174" value="" style="endArrow=none;html=1;rounded=0;entryX=0.099;entryY=1.052;entryDx=0;entryDy=0;entryPerimeter=0;exitX=1;exitY=0.5;exitDx=0;exitDy=0;" parent="1" source="edTjm4dISCqz6r1TiSTo-26" target="y91Bqe_7xXxEDmseq83t-129" edge="1">
          <mxGeometry relative="1" as="geometry">
            <mxPoint x="-380" y="1050" as="sourcePoint" />
            <mxPoint x="-190" y="840" as="targetPoint" />
            <Array as="points">
              <mxPoint x="-160" y="1058" />
            </Array>
          </mxGeometry>
        </mxCell>
        <mxCell id="y91Bqe_7xXxEDmseq83t-277" value="&lt;font style=&quot;font-size: 10px;&quot;&gt;ContÃ©m&lt;/font&gt;" style="shape=rhombus;perimeter=rhombusPerimeter;whiteSpace=wrap;html=1;align=center;" parent="1" vertex="1">
          <mxGeometry x="320" y="193.75" width="77.5" height="50" as="geometry" />
        </mxCell>
        <mxCell id="y91Bqe_7xXxEDmseq83t-278" value="Mapa" style="whiteSpace=wrap;html=1;align=center;" parent="1" vertex="1">
          <mxGeometry x="318.75" y="120" width="80" height="45" as="geometry" />
        </mxCell>
        <mxCell id="y91Bqe_7xXxEDmseq83t-280" value="faz_fronteira" style="shape=rhombus;perimeter=rhombusPerimeter;whiteSpace=wrap;html=1;align=center;" parent="1" vertex="1">
          <mxGeometry x="300" y="259.5" width="120" height="60" as="geometry" />
        </mxCell>
        <mxCell id="y91Bqe_7xXxEDmseq83t-281" value="" style="endArrow=none;html=1;rounded=0;entryX=0.5;entryY=0;entryDx=0;entryDy=0;exitX=1;exitY=0.5;exitDx=0;exitDy=0;" parent="1" source="y91Bqe_7xXxEDmseq83t-95" target="y91Bqe_7xXxEDmseq83t-280" edge="1">
          <mxGeometry relative="1" as="geometry">
            <mxPoint x="204" y="278" as="sourcePoint" />
            <mxPoint x="480" y="220" as="targetPoint" />
          </mxGeometry>
        </mxCell>
        <mxCell id="y91Bqe_7xXxEDmseq83t-282" value="" style="endArrow=none;html=1;rounded=0;exitX=1;exitY=0.5;exitDx=0;exitDy=0;entryX=0.5;entryY=1;entryDx=0;entryDy=0;" parent="1" source="y91Bqe_7xXxEDmseq83t-95" target="y91Bqe_7xXxEDmseq83t-280" edge="1">
          <mxGeometry relative="1" as="geometry">
            <mxPoint x="214" y="288" as="sourcePoint" />
            <mxPoint x="320" y="270" as="targetPoint" />
          </mxGeometry>
        </mxCell>
        <mxCell id="y91Bqe_7xXxEDmseq83t-283" value="abriga" style="shape=rhombus;perimeter=rhombusPerimeter;whiteSpace=wrap;html=1;align=center;" parent="1" vertex="1">
          <mxGeometry x="365" y="313" width="120" height="60" as="geometry" />
        </mxCell>
        <mxCell id="y91Bqe_7xXxEDmseq83t-285" value="" style="endArrow=none;html=1;rounded=0;exitX=0.835;exitY=0.991;exitDx=0;exitDy=0;exitPerimeter=0;entryX=0;entryY=0.5;entryDx=0;entryDy=0;" parent="1" source="y91Bqe_7xXxEDmseq83t-95" target="y91Bqe_7xXxEDmseq83t-283" edge="1">
          <mxGeometry relative="1" as="geometry">
            <mxPoint x="350" y="340" as="sourcePoint" />
            <mxPoint x="510" y="340" as="targetPoint" />
            <Array as="points">
              <mxPoint x="191" y="340" />
            </Array>
          </mxGeometry>
        </mxCell>
        <mxCell id="y91Bqe_7xXxEDmseq83t-287" value="Estabelecimento" style="whiteSpace=wrap;html=1;align=center;" parent="1" vertex="1">
          <mxGeometry x="900" y="248.87999999999988" width="100" height="40" as="geometry" />
        </mxCell>
        <mxCell id="y91Bqe_7xXxEDmseq83t-288" value="InstÃ¢ncia de Estabelecimento" style="shape=ext;margin=3;double=1;whiteSpace=wrap;html=1;align=center;" parent="1" vertex="1">
          <mxGeometry x="549" y="248.88" width="100" height="40" as="geometry" />
        </mxCell>
        <mxCell id="y91Bqe_7xXxEDmseq83t-289" value="possui" style="shape=rhombus;double=1;perimeter=rhombusPerimeter;whiteSpace=wrap;html=1;align=center;" parent="1" vertex="1">
          <mxGeometry x="730" y="238.88" width="120" height="60" as="geometry" />
        </mxCell>
        <mxCell id="y91Bqe_7xXxEDmseq83t-290" value="" style="endArrow=none;html=1;rounded=0;exitX=1;exitY=0.5;exitDx=0;exitDy=0;entryX=0;entryY=0.5;entryDx=0;entryDy=0;" parent="1" source="y91Bqe_7xXxEDmseq83t-289" target="y91Bqe_7xXxEDmseq83t-287" edge="1">
          <mxGeometry relative="1" as="geometry">
            <mxPoint x="460" y="671" as="sourcePoint" />
            <mxPoint x="620" y="671" as="targetPoint" />
          </mxGeometry>
        </mxCell>
        <mxCell id="y91Bqe_7xXxEDmseq83t-291" value="1" style="resizable=0;html=1;whiteSpace=wrap;align=right;verticalAlign=bottom;" parent="y91Bqe_7xXxEDmseq83t-290" connectable="0" vertex="1">
          <mxGeometry x="1" relative="1" as="geometry">
            <mxPoint x="-22" y="1" as="offset" />
          </mxGeometry>
        </mxCell>
        <mxCell id="y91Bqe_7xXxEDmseq83t-292" value="" style="shape=link;html=1;rounded=0;exitX=0;exitY=0.5;exitDx=0;exitDy=0;entryX=1;entryY=0.5;entryDx=0;entryDy=0;" parent="1" source="y91Bqe_7xXxEDmseq83t-289" target="y91Bqe_7xXxEDmseq83t-288" edge="1">
          <mxGeometry relative="1" as="geometry">
            <mxPoint x="580" y="671" as="sourcePoint" />
            <mxPoint x="740" y="671" as="targetPoint" />
          </mxGeometry>
        </mxCell>
        <mxCell id="y91Bqe_7xXxEDmseq83t-293" value="N" style="resizable=0;html=1;whiteSpace=wrap;align=right;verticalAlign=bottom;" parent="y91Bqe_7xXxEDmseq83t-292" connectable="0" vertex="1">
          <mxGeometry x="1" relative="1" as="geometry">
            <mxPoint x="43" y="1" as="offset" />
          </mxGeometry>
        </mxCell>
        <mxCell id="y91Bqe_7xXxEDmseq83t-294" value="" style="endArrow=none;html=1;rounded=0;exitX=0.5;exitY=0;exitDx=0;exitDy=0;entryX=-0.004;entryY=0.596;entryDx=0;entryDy=0;entryPerimeter=0;" parent="1" source="y91Bqe_7xXxEDmseq83t-283" target="y91Bqe_7xXxEDmseq83t-288" edge="1">
          <mxGeometry relative="1" as="geometry">
            <mxPoint x="274" y="420" as="sourcePoint" />
            <mxPoint x="540" y="180" as="targetPoint" />
            <Array as="points">
              <mxPoint x="425" y="273" />
            </Array>
          </mxGeometry>
        </mxCell>
        <mxCell id="y91Bqe_7xXxEDmseq83t-295" value="N" style="resizable=0;html=1;whiteSpace=wrap;align=right;verticalAlign=bottom;" parent="y91Bqe_7xXxEDmseq83t-294" connectable="0" vertex="1">
          <mxGeometry x="1" relative="1" as="geometry">
            <mxPoint x="-45" y="1" as="offset" />
          </mxGeometry>
        </mxCell>
        <mxCell id="y91Bqe_7xXxEDmseq83t-296" value="ConsumÃ­vel" style="whiteSpace=wrap;html=1;" parent="1" vertex="1">
          <mxGeometry x="-800" y="193.75" width="90" height="39" as="geometry" />
        </mxCell>
        <mxCell id="y91Bqe_7xXxEDmseq83t-297" value="" style="triangle;whiteSpace=wrap;html=1;direction=north;" parent="1" vertex="1">
          <mxGeometry x="-649.9999999999998" y="220" width="27.5" height="27.5" as="geometry" />
        </mxCell>
        <mxCell id="y91Bqe_7xXxEDmseq83t-299" value="" style="endArrow=none;html=1;rounded=0;exitX=0.5;exitY=0;exitDx=0;exitDy=0;entryX=0.5;entryY=1;entryDx=0;entryDy=0;" parent="1" source="y91Bqe_7xXxEDmseq83t-277" target="y91Bqe_7xXxEDmseq83t-278" edge="1">
          <mxGeometry relative="1" as="geometry">
            <mxPoint x="350" y="210" as="sourcePoint" />
            <mxPoint x="510" y="210" as="targetPoint" />
          </mxGeometry>
        </mxCell>
        <mxCell id="y91Bqe_7xXxEDmseq83t-300" value="1" style="resizable=0;html=1;whiteSpace=wrap;align=right;verticalAlign=bottom;" parent="y91Bqe_7xXxEDmseq83t-299" connectable="0" vertex="1">
          <mxGeometry x="1" relative="1" as="geometry">
            <mxPoint x="11" y="24" as="offset" />
          </mxGeometry>
        </mxCell>
        <mxCell id="y91Bqe_7xXxEDmseq83t-301" value="" style="endArrow=none;html=1;rounded=0;exitX=0;exitY=0.5;exitDx=0;exitDy=0;entryX=0.75;entryY=0;entryDx=0;entryDy=0;" parent="1" source="y91Bqe_7xXxEDmseq83t-277" target="y91Bqe_7xXxEDmseq83t-95" edge="1">
          <mxGeometry relative="1" as="geometry">
            <mxPoint x="280" y="180" as="sourcePoint" />
            <mxPoint x="440" y="180" as="targetPoint" />
            <Array as="points">
              <mxPoint x="184" y="220" />
            </Array>
          </mxGeometry>
        </mxCell>
        <mxCell id="y91Bqe_7xXxEDmseq83t-302" value="N" style="resizable=0;html=1;whiteSpace=wrap;align=right;verticalAlign=bottom;" parent="y91Bqe_7xXxEDmseq83t-301" connectable="0" vertex="1">
          <mxGeometry x="1" relative="1" as="geometry">
            <mxPoint x="83" y="-49" as="offset" />
          </mxGeometry>
        </mxCell>
        <mxCell id="y91Bqe_7xXxEDmseq83t-303" value="EquipÃ¡vel" style="whiteSpace=wrap;html=1;" parent="1" vertex="1">
          <mxGeometry x="-800" y="267" width="90" height="39" as="geometry" />
        </mxCell>
        <mxCell id="y91Bqe_7xXxEDmseq83t-304" value="" style="endArrow=none;html=1;rounded=0;entryX=0;entryY=0.5;entryDx=0;entryDy=0;exitX=1;exitY=0.5;exitDx=0;exitDy=0;" parent="1" source="y91Bqe_7xXxEDmseq83t-303" target="y91Bqe_7xXxEDmseq83t-297" edge="1">
          <mxGeometry relative="1" as="geometry">
            <mxPoint x="-780" y="140" as="sourcePoint" />
            <mxPoint x="-620" y="140" as="targetPoint" />
            <Array as="points">
              <mxPoint x="-636" y="287" />
            </Array>
          </mxGeometry>
        </mxCell>
        <mxCell id="y91Bqe_7xXxEDmseq83t-305" value="" style="endArrow=none;html=1;rounded=0;entryX=0;entryY=0.5;entryDx=0;entryDy=0;exitX=1;exitY=0.5;exitDx=0;exitDy=0;" parent="1" source="y91Bqe_7xXxEDmseq83t-297" target="y91Bqe_7xXxEDmseq83t-141" edge="1">
          <mxGeometry relative="1" as="geometry">
            <mxPoint x="-782.5" y="166.86" as="sourcePoint" />
            <mxPoint x="-622.5" y="166.86" as="targetPoint" />
            <Array as="points">
              <mxPoint x="-636" y="170" />
            </Array>
          </mxGeometry>
        </mxCell>
        <mxCell id="y91Bqe_7xXxEDmseq83t-306" value="" style="endArrow=none;html=1;rounded=0;entryX=0.635;entryY=0.331;entryDx=0;entryDy=0;entryPerimeter=0;exitX=1.002;exitY=0.924;exitDx=0;exitDy=0;exitPerimeter=0;" parent="1" source="y91Bqe_7xXxEDmseq83t-296" target="y91Bqe_7xXxEDmseq83t-297" edge="1">
          <mxGeometry relative="1" as="geometry">
            <mxPoint x="-870" y="190" as="sourcePoint" />
            <mxPoint x="-710" y="190" as="targetPoint" />
          </mxGeometry>
        </mxCell>
        <mxCell id="y91Bqe_7xXxEDmseq83t-307" value="(T, E)" style="text;strokeColor=none;fillColor=none;spacingLeft=4;spacingRight=4;overflow=hidden;rotatable=0;points=[[0,0.5],[1,0.5]];portConstraint=eastwest;fontSize=12;whiteSpace=wrap;html=1;" parent="1" vertex="1">
          <mxGeometry x="-631" y="219" width="40" height="30" as="geometry" />
        </mxCell>
        <mxCell id="y91Bqe_7xXxEDmseq83t-308" value="DiÃ¡logo" style="whiteSpace=wrap;html=1;align=center;" parent="1" vertex="1">
          <mxGeometry x="560" y="486.8799999999999" width="100" height="40" as="geometry" />
        </mxCell>
        <mxCell id="y91Bqe_7xXxEDmseq83t-309" value="fala" style="shape=rhombus;perimeter=rhombusPerimeter;whiteSpace=wrap;html=1;align=center;" parent="1" vertex="1">
          <mxGeometry x="385" y="476.88" width="120" height="60" as="geometry" />
        </mxCell>
        <mxCell id="y91Bqe_7xXxEDmseq83t-310" value="" style="endArrow=none;html=1;rounded=0;exitX=0.993;exitY=0.495;exitDx=0;exitDy=0;exitPerimeter=0;entryX=0;entryY=0.5;entryDx=0;entryDy=0;" parent="1" source="y91Bqe_7xXxEDmseq83t-309" target="y91Bqe_7xXxEDmseq83t-308" edge="1">
          <mxGeometry relative="1" as="geometry">
            <mxPoint x="610" y="570" as="sourcePoint" />
            <mxPoint x="770" y="570" as="targetPoint" />
          </mxGeometry>
        </mxCell>
        <mxCell id="y91Bqe_7xXxEDmseq83t-311" value="" style="endArrow=none;html=1;rounded=0;entryX=0;entryY=0.5;entryDx=0;entryDy=0;exitX=1;exitY=0.5;exitDx=0;exitDy=0;" parent="1" source="y91Bqe_7xXxEDmseq83t-105" target="y91Bqe_7xXxEDmseq83t-309" edge="1">
          <mxGeometry relative="1" as="geometry">
            <mxPoint x="350" y="510" as="sourcePoint" />
            <mxPoint x="620" y="450" as="targetPoint" />
            <Array as="points" />
          </mxGeometry>
        </mxCell>
        <mxCell id="y91Bqe_7xXxEDmseq83t-313" value="MissÃ£o" style="whiteSpace=wrap;html=1;align=center;" parent="1" vertex="1">
          <mxGeometry x="560" y="639.9999999999999" width="100" height="40" as="geometry" />
        </mxCell>
        <mxCell id="y91Bqe_7xXxEDmseq83t-315" value="cumpre" style="shape=rhombus;perimeter=rhombusPerimeter;whiteSpace=wrap;html=1;align=center;" parent="1" vertex="1">
          <mxGeometry x="381.51" y="629.75" width="120" height="60" as="geometry" />
        </mxCell>
        <mxCell id="y91Bqe_7xXxEDmseq83t-316" value="prÃ©-requisito" style="shape=rhombus;perimeter=rhombusPerimeter;whiteSpace=wrap;html=1;align=center;" parent="1" vertex="1">
          <mxGeometry x="750" y="629.75" width="120" height="60" as="geometry" />
        </mxCell>
        <mxCell id="y91Bqe_7xXxEDmseq83t-317" value="" style="endArrow=none;html=1;rounded=0;exitX=1;exitY=0.5;exitDx=0;exitDy=0;entryX=0.5;entryY=0;entryDx=0;entryDy=0;" parent="1" source="y91Bqe_7xXxEDmseq83t-313" target="y91Bqe_7xXxEDmseq83t-316" edge="1">
          <mxGeometry relative="1" as="geometry">
            <mxPoint x="680" y="720" as="sourcePoint" />
            <mxPoint x="840" y="720" as="targetPoint" />
          </mxGeometry>
        </mxCell>
        <mxCell id="y91Bqe_7xXxEDmseq83t-318" value="" style="endArrow=none;html=1;rounded=0;entryX=0.5;entryY=1;entryDx=0;entryDy=0;exitX=1;exitY=0.5;exitDx=0;exitDy=0;" parent="1" source="y91Bqe_7xXxEDmseq83t-313" target="y91Bqe_7xXxEDmseq83t-316" edge="1">
          <mxGeometry relative="1" as="geometry">
            <mxPoint x="670" y="670" as="sourcePoint" />
            <mxPoint x="850" y="730" as="targetPoint" />
          </mxGeometry>
        </mxCell>
        <mxCell id="y91Bqe_7xXxEDmseq83t-319" value="" style="endArrow=none;html=1;rounded=0;exitX=1;exitY=0.5;exitDx=0;exitDy=0;entryX=0;entryY=0.5;entryDx=0;entryDy=0;" parent="1" source="y91Bqe_7xXxEDmseq83t-315" target="y91Bqe_7xXxEDmseq83t-313" edge="1">
          <mxGeometry relative="1" as="geometry">
            <mxPoint x="700" y="740" as="sourcePoint" />
            <mxPoint x="860" y="740" as="targetPoint" />
          </mxGeometry>
        </mxCell>
        <mxCell id="y91Bqe_7xXxEDmseq83t-320" value="" style="endArrow=none;html=1;rounded=0;exitX=0.772;exitY=1.012;exitDx=0;exitDy=0;entryX=0;entryY=0.5;entryDx=0;entryDy=0;exitPerimeter=0;" parent="1" source="edTjm4dISCqz6r1TiSTo-55" edge="1">
          <mxGeometry relative="1" as="geometry">
            <mxPoint x="83" y="526.8800000000001" as="sourcePoint" />
            <mxPoint x="379.51" y="659.75" as="targetPoint" />
            <Array as="points">
              <mxPoint x="88" y="660" />
            </Array>
          </mxGeometry>
        </mxCell>
        <mxCell id="y91Bqe_7xXxEDmseq83t-321" value="conta" style="shape=rhombus;perimeter=rhombusPerimeter;whiteSpace=wrap;html=1;align=center;" parent="1" vertex="1">
          <mxGeometry x="550" y="717.5" width="120" height="60" as="geometry" />
        </mxCell>
        <mxCell id="y91Bqe_7xXxEDmseq83t-322" value="HistÃ³ria" style="whiteSpace=wrap;html=1;align=center;" parent="1" vertex="1">
          <mxGeometry x="730" y="727.4999999999999" width="100" height="40" as="geometry" />
        </mxCell>
        <mxCell id="y91Bqe_7xXxEDmseq83t-326" value="" style="endArrow=none;html=1;rounded=0;exitX=1;exitY=0.5;exitDx=0;exitDy=0;entryX=0;entryY=0.5;entryDx=0;entryDy=0;" parent="1" source="y91Bqe_7xXxEDmseq83t-321" target="y91Bqe_7xXxEDmseq83t-322" edge="1">
          <mxGeometry relative="1" as="geometry">
            <mxPoint x="720" y="790" as="sourcePoint" />
            <mxPoint x="880" y="790" as="targetPoint" />
          </mxGeometry>
        </mxCell>
        <mxCell id="yl1Z2EMh4tdtqLIf2lp5-6" value="ProjÃ©til" style="shape=ext;margin=3;double=1;whiteSpace=wrap;html=1;align=center;" parent="1" vertex="1">
          <mxGeometry x="-4" y="1166" width="100" height="40" as="geometry" />
        </mxCell>
        <mxCell id="yl1Z2EMh4tdtqLIf2lp5-7" value="dispara" style="shape=rhombus;double=1;perimeter=rhombusPerimeter;whiteSpace=wrap;html=1;align=center;" parent="1" vertex="1">
          <mxGeometry x="-15.750000000000016" y="1041" width="123.49" height="60" as="geometry" />
        </mxCell>
        <mxCell id="yl1Z2EMh4tdtqLIf2lp5-38" value="" style="endArrow=none;html=1;rounded=0;exitX=1;exitY=0.5;exitDx=0;exitDy=0;entryX=0;entryY=0.5;entryDx=0;entryDy=0;" parent="1" source="y91Bqe_7xXxEDmseq83t-308" target="VzG8-4p2IzFKK54a7V07-25" edge="1">
          <mxGeometry relative="1" as="geometry">
            <mxPoint x="650" y="430" as="sourcePoint" />
            <mxPoint x="730" y="506.8800000000001" as="targetPoint" />
          </mxGeometry>
        </mxCell>
        <mxCell id="yl1Z2EMh4tdtqLIf2lp5-40" value="" style="shape=link;html=1;rounded=0;exitX=1;exitY=0.5;exitDx=0;exitDy=0;entryX=0;entryY=0.5;entryDx=0;entryDy=0;" parent="1" source="VzG8-4p2IzFKK54a7V07-25" target="VzG8-4p2IzFKK54a7V07-26" edge="1">
          <mxGeometry relative="1" as="geometry">
            <mxPoint x="850" y="506.8800000000001" as="sourcePoint" />
            <mxPoint x="960" y="506.8799999999999" as="targetPoint" />
          </mxGeometry>
        </mxCell>
        <mxCell id="yl1Z2EMh4tdtqLIf2lp5-41" value="N" style="resizable=0;html=1;whiteSpace=wrap;align=right;verticalAlign=bottom;" parent="yl1Z2EMh4tdtqLIf2lp5-40" connectable="0" vertex="1">
          <mxGeometry x="1" relative="1" as="geometry">
            <mxPoint x="-45" y="-1" as="offset" />
          </mxGeometry>
        </mxCell>
        <mxCell id="yl1Z2EMh4tdtqLIf2lp5-42" value="tem" style="shape=rhombus;perimeter=rhombusPerimeter;whiteSpace=wrap;html=1;align=center;" parent="1" vertex="1">
          <mxGeometry x="550" y="550" width="120" height="60" as="geometry" />
        </mxCell>
        <mxCell id="yl1Z2EMh4tdtqLIf2lp5-43" value="Objetivo" style="whiteSpace=wrap;html=1;align=center;" parent="1" vertex="1">
          <mxGeometry x="720" y="559.9999999999999" width="100" height="40" as="geometry" />
        </mxCell>
        <mxCell id="yl1Z2EMh4tdtqLIf2lp5-44" value="" style="endArrow=none;html=1;rounded=0;exitX=0.5;exitY=0;exitDx=0;exitDy=0;entryX=0.5;entryY=1;entryDx=0;entryDy=0;" parent="1" source="y91Bqe_7xXxEDmseq83t-313" target="yl1Z2EMh4tdtqLIf2lp5-42" edge="1">
          <mxGeometry relative="1" as="geometry">
            <mxPoint x="930" y="690" as="sourcePoint" />
            <mxPoint x="1090" y="690" as="targetPoint" />
          </mxGeometry>
        </mxCell>
        <mxCell id="yl1Z2EMh4tdtqLIf2lp5-47" value="" style="group" parent="1" vertex="1" connectable="0">
          <mxGeometry x="-580" y="636.88" width="40" height="58.879999999999995" as="geometry" />
        </mxCell>
        <mxCell id="yl1Z2EMh4tdtqLIf2lp5-49" value="" style="ellipse;whiteSpace=wrap;html=1;rotation=-45;" parent="yl1Z2EMh4tdtqLIf2lp5-47" vertex="1">
          <mxGeometry x="15" y="23.879999999999995" width="10" height="10" as="geometry" />
        </mxCell>
        <mxCell id="yl1Z2EMh4tdtqLIf2lp5-50" value="&lt;span style=&quot;font-size: 6px;&quot;&gt;&lt;b&gt;&lt;u&gt;Id_Inv.&lt;/u&gt;&lt;/b&gt;&lt;/span&gt;" style="text;html=1;align=center;verticalAlign=middle;resizable=0;points=[];autosize=1;strokeColor=none;fillColor=none;rotation=0;" parent="yl1Z2EMh4tdtqLIf2lp5-47" vertex="1">
          <mxGeometry width="40" height="30" as="geometry" />
        </mxCell>
        <mxCell id="yl1Z2EMh4tdtqLIf2lp5-51" value="" style="group" parent="1" vertex="1" connectable="0">
          <mxGeometry x="-552" y="636.88" width="45" height="58.879999999999995" as="geometry" />
        </mxCell>
        <mxCell id="yl1Z2EMh4tdtqLIf2lp5-53" value="" style="ellipse;whiteSpace=wrap;html=1;rotation=-45;" parent="yl1Z2EMh4tdtqLIf2lp5-51" vertex="1">
          <mxGeometry x="15" y="23.879999999999995" width="10" height="10" as="geometry" />
        </mxCell>
        <mxCell id="yl1Z2EMh4tdtqLIf2lp5-54" value="&lt;span style=&quot;font-size: 6px;&quot;&gt;&lt;b&gt;&lt;u&gt;ID_Pers.&lt;/u&gt;&lt;/b&gt;&lt;/span&gt;" style="text;html=1;align=center;verticalAlign=middle;resizable=0;points=[];autosize=1;strokeColor=none;fillColor=none;rotation=0;" parent="yl1Z2EMh4tdtqLIf2lp5-51" vertex="1">
          <mxGeometry x="-5" width="50" height="30" as="geometry" />
        </mxCell>
        <mxCell id="yl1Z2EMh4tdtqLIf2lp5-55" value="" style="group" parent="1" vertex="1" connectable="0">
          <mxGeometry x="-480" y="636.88" width="45" height="58.879999999999995" as="geometry" />
        </mxCell>
        <mxCell id="yl1Z2EMh4tdtqLIf2lp5-57" value="" style="ellipse;whiteSpace=wrap;html=1;rotation=-45;" parent="yl1Z2EMh4tdtqLIf2lp5-55" vertex="1">
          <mxGeometry x="15" y="23.879999999999995" width="10" height="10" as="geometry" />
        </mxCell>
        <mxCell id="yl1Z2EMh4tdtqLIf2lp5-58" value="&lt;span style=&quot;font-size: 6px;&quot;&gt;&lt;b&gt;Capacidade&lt;/b&gt;&lt;/span&gt;" style="text;html=1;align=center;verticalAlign=middle;resizable=0;points=[];autosize=1;strokeColor=none;fillColor=none;rotation=0;" parent="yl1Z2EMh4tdtqLIf2lp5-55" vertex="1">
          <mxGeometry x="-5" width="50" height="30" as="geometry" />
        </mxCell>
        <mxCell id="yl1Z2EMh4tdtqLIf2lp5-56" value="" style="endArrow=none;html=1;rounded=0;entryX=0.916;entryY=-0.006;entryDx=0;entryDy=0;entryPerimeter=0;exitX=0;exitY=1;exitDx=0;exitDy=0;" parent="1" source="yl1Z2EMh4tdtqLIf2lp5-57" target="y91Bqe_7xXxEDmseq83t-136" edge="1">
          <mxGeometry width="50" height="50" relative="1" as="geometry">
            <mxPoint x="-460" y="671.7600000000001" as="sourcePoint" />
            <mxPoint x="-460" y="695.76" as="targetPoint" />
          </mxGeometry>
        </mxCell>
        <mxCell id="yl1Z2EMh4tdtqLIf2lp5-52" value="" style="endArrow=none;html=1;rounded=0;entryX=0.315;entryY=0.004;entryDx=0;entryDy=0;entryPerimeter=0;exitX=0;exitY=1;exitDx=0;exitDy=0;" parent="1" source="yl1Z2EMh4tdtqLIf2lp5-53" target="y91Bqe_7xXxEDmseq83t-136" edge="1">
          <mxGeometry width="50" height="50" relative="1" as="geometry">
            <mxPoint x="-532" y="671.7600000000001" as="sourcePoint" />
            <mxPoint x="-532" y="695.76" as="targetPoint" />
          </mxGeometry>
        </mxCell>
        <mxCell id="yl1Z2EMh4tdtqLIf2lp5-48" value="" style="endArrow=none;html=1;rounded=0;entryX=0.081;entryY=0;entryDx=0;entryDy=0;entryPerimeter=0;exitX=0;exitY=1;exitDx=0;exitDy=0;" parent="1" source="yl1Z2EMh4tdtqLIf2lp5-49" target="y91Bqe_7xXxEDmseq83t-136" edge="1">
          <mxGeometry width="50" height="50" relative="1" as="geometry">
            <mxPoint x="-560" y="671.7600000000001" as="sourcePoint" />
            <mxPoint x="-560" y="695.76" as="targetPoint" />
          </mxGeometry>
        </mxCell>
        <mxCell id="yl1Z2EMh4tdtqLIf2lp5-59" value="" style="group" parent="1" vertex="1" connectable="0">
          <mxGeometry x="-514" y="636.88" width="45" height="58.879999999999995" as="geometry" />
        </mxCell>
        <mxCell id="yl1Z2EMh4tdtqLIf2lp5-61" value="" style="ellipse;whiteSpace=wrap;html=1;rotation=-45;" parent="yl1Z2EMh4tdtqLIf2lp5-59" vertex="1">
          <mxGeometry x="15" y="23.879999999999995" width="10" height="10" as="geometry" />
        </mxCell>
        <mxCell id="yl1Z2EMh4tdtqLIf2lp5-62" value="&lt;span style=&quot;font-size: 6px;&quot;&gt;&lt;b&gt;Total_itens&lt;/b&gt;&lt;/span&gt;" style="text;html=1;align=center;verticalAlign=middle;resizable=0;points=[];autosize=1;strokeColor=none;fillColor=none;rotation=0;" parent="yl1Z2EMh4tdtqLIf2lp5-59" vertex="1">
          <mxGeometry x="-5" width="50" height="30" as="geometry" />
        </mxCell>
        <mxCell id="yl1Z2EMh4tdtqLIf2lp5-60" value="" style="endArrow=none;html=1;rounded=0;entryX=0.631;entryY=-0.001;entryDx=0;entryDy=0;entryPerimeter=0;exitX=0;exitY=1;exitDx=0;exitDy=0;" parent="1" source="yl1Z2EMh4tdtqLIf2lp5-61" target="y91Bqe_7xXxEDmseq83t-136" edge="1">
          <mxGeometry width="50" height="50" relative="1" as="geometry">
            <mxPoint x="-494" y="671.7600000000001" as="sourcePoint" />
            <mxPoint x="-494" y="695.76" as="targetPoint" />
          </mxGeometry>
        </mxCell>
        <mxCell id="VzG8-4p2IzFKK54a7V07-25" value="Ã© composto por" style="shape=rhombus;double=1;perimeter=rhombusPerimeter;whiteSpace=wrap;html=1;align=center;" parent="1" vertex="1">
          <mxGeometry x="730" y="476.88" width="120" height="60" as="geometry" />
        </mxCell>
        <mxCell id="VzG8-4p2IzFKK54a7V07-26" value="Linha de Fala" style="shape=ext;margin=3;double=1;whiteSpace=wrap;html=1;align=center;" parent="1" vertex="1">
          <mxGeometry x="960" y="486.88" width="100" height="40" as="geometry" />
        </mxCell>
        <mxCell id="VzG8-4p2IzFKK54a7V07-100" value="Classe" style="whiteSpace=wrap;html=1;align=center;" parent="1" vertex="1">
          <mxGeometry x="-244" y="1256" width="100" height="40" as="geometry" />
        </mxCell>
        <mxCell id="VzG8-4p2IzFKK54a7V07-101" value="Habilidade" style="whiteSpace=wrap;html=1;align=center;" parent="1" vertex="1">
          <mxGeometry x="-680" y="1254.88" width="100" height="40" as="geometry" />
        </mxCell>
        <mxCell id="VzG8-4p2IzFKK54a7V07-102" value="" style="endArrow=none;html=1;rounded=0;entryX=0.359;entryY=1.016;entryDx=0;entryDy=0;entryPerimeter=0;exitX=0.5;exitY=0;exitDx=0;exitDy=0;" parent="1" source="VzG8-4p2IzFKK54a7V07-103" target="y91Bqe_7xXxEDmseq83t-129" edge="1">
          <mxGeometry relative="1" as="geometry">
            <mxPoint x="-250" y="940" as="sourcePoint" />
            <mxPoint x="-90" y="940" as="targetPoint" />
          </mxGeometry>
        </mxCell>
        <mxCell id="VzG8-4p2IzFKK54a7V07-103" value="pertence Ã " style="shape=rhombus;perimeter=rhombusPerimeter;whiteSpace=wrap;html=1;align=center;" parent="1" vertex="1">
          <mxGeometry x="-192.51" y="1057" width="120" height="60" as="geometry" />
        </mxCell>
        <mxCell id="VzG8-4p2IzFKK54a7V07-104" value="possui" style="shape=rhombus;perimeter=rhombusPerimeter;whiteSpace=wrap;html=1;align=center;" parent="1" vertex="1">
          <mxGeometry x="-480" y="1246" width="120" height="60" as="geometry" />
        </mxCell>
        <mxCell id="VzG8-4p2IzFKK54a7V07-105" value="" style="endArrow=none;html=1;rounded=0;exitX=0;exitY=0.5;exitDx=0;exitDy=0;entryX=0.5;entryY=0;entryDx=0;entryDy=0;" parent="1" source="VzG8-4p2IzFKK54a7V07-103" target="VzG8-4p2IzFKK54a7V07-100" edge="1">
          <mxGeometry relative="1" as="geometry">
            <mxPoint x="-250" y="980" as="sourcePoint" />
            <mxPoint x="-90" y="980" as="targetPoint" />
          </mxGeometry>
        </mxCell>
        <mxCell id="VzG8-4p2IzFKK54a7V07-106" value="" style="endArrow=none;html=1;rounded=0;entryX=0;entryY=0.5;entryDx=0;entryDy=0;exitX=1;exitY=0.5;exitDx=0;exitDy=0;" parent="1" source="VzG8-4p2IzFKK54a7V07-104" target="VzG8-4p2IzFKK54a7V07-100" edge="1">
          <mxGeometry relative="1" as="geometry">
            <mxPoint x="-370" y="960" as="sourcePoint" />
            <mxPoint x="-210" y="960" as="targetPoint" />
          </mxGeometry>
        </mxCell>
        <mxCell id="VzG8-4p2IzFKK54a7V07-107" value="" style="endArrow=none;html=1;rounded=0;exitX=1;exitY=0.5;exitDx=0;exitDy=0;entryX=0;entryY=0.5;entryDx=0;entryDy=0;" parent="1" source="VzG8-4p2IzFKK54a7V07-101" target="VzG8-4p2IzFKK54a7V07-104" edge="1">
          <mxGeometry relative="1" as="geometry">
            <mxPoint x="-450" y="1040" as="sourcePoint" />
            <mxPoint x="-290" y="1040" as="targetPoint" />
          </mxGeometry>
        </mxCell>
        <mxCell id="FQAgYsz1G8o2xN7O9MeR-2" value="InstÃ¢ncia de Arma" style="shape=ext;margin=3;double=1;whiteSpace=wrap;html=1;align=center;" parent="1" vertex="1">
          <mxGeometry x="160" y="924" width="120" height="40" as="geometry" />
        </mxCell>
        <mxCell id="FQAgYsz1G8o2xN7O9MeR-5" value="Arma Melee" style="whiteSpace=wrap;html=1;align=center;" parent="1" vertex="1">
          <mxGeometry x="310" y="1410" width="100" height="40" as="geometry" />
        </mxCell>
        <mxCell id="FQAgYsz1G8o2xN7O9MeR-8" value="Arma" style="whiteSpace=wrap;html=1;align=center;" parent="1" vertex="1">
          <mxGeometry x="170" y="1166" width="100" height="40" as="geometry" />
        </mxCell>
        <mxCell id="FQAgYsz1G8o2xN7O9MeR-9" value="" style="triangle;whiteSpace=wrap;html=1;direction=north;" parent="1" vertex="1">
          <mxGeometry x="206.25000000000023" y="1360" width="27.5" height="27.5" as="geometry" />
        </mxCell>
        <mxCell id="FQAgYsz1G8o2xN7O9MeR-10" value="" style="endArrow=none;html=1;rounded=0;exitX=0.5;exitY=1;exitDx=0;exitDy=0;entryX=1;entryY=0.5;entryDx=0;entryDy=0;" parent="1" source="FQAgYsz1G8o2xN7O9MeR-8" target="FQAgYsz1G8o2xN7O9MeR-9" edge="1">
          <mxGeometry relative="1" as="geometry">
            <mxPoint x="90" y="1440" as="sourcePoint" />
            <mxPoint x="250" y="1440" as="targetPoint" />
          </mxGeometry>
        </mxCell>
        <mxCell id="FQAgYsz1G8o2xN7O9MeR-11" value="" style="endArrow=none;html=1;rounded=0;exitX=-0.018;exitY=0.673;exitDx=0;exitDy=0;entryX=0.002;entryY=0.524;entryDx=0;entryDy=0;entryPerimeter=0;exitPerimeter=0;" parent="1" source="FQAgYsz1G8o2xN7O9MeR-9" target="FQAgYsz1G8o2xN7O9MeR-5" edge="1">
          <mxGeometry relative="1" as="geometry">
            <mxPoint x="116.87500000000023" y="1388.5" as="sourcePoint" />
            <mxPoint x="248.75" y="1435.5" as="targetPoint" />
            <Array as="points">
              <mxPoint x="225" y="1431" />
            </Array>
          </mxGeometry>
        </mxCell>
        <mxCell id="FQAgYsz1G8o2xN7O9MeR-12" value="" style="endArrow=none;html=1;rounded=0;entryX=-0.018;entryY=0.342;entryDx=0;entryDy=0;entryPerimeter=0;exitX=1;exitY=0.5;exitDx=0;exitDy=0;" parent="1" source="y91Bqe_7xXxEDmseq83t-158" target="FQAgYsz1G8o2xN7O9MeR-9" edge="1">
          <mxGeometry relative="1" as="geometry">
            <mxPoint x="-40" y="1440" as="sourcePoint" />
            <mxPoint x="140" y="1350" as="targetPoint" />
            <Array as="points">
              <mxPoint x="216" y="1430" />
            </Array>
          </mxGeometry>
        </mxCell>
        <mxCell id="_4vCToPrs3ZwvSauzwrv-1" value="ID-MissÃ£o" style="ellipse;whiteSpace=wrap;html=1;align=center;fontStyle=4;" parent="1" vertex="1">
          <mxGeometry x="425" y="727.5" width="100" height="40" as="geometry" />
        </mxCell>
        <mxCell id="_4vCToPrs3ZwvSauzwrv-5" value="Personagens" style="ellipse;shape=doubleEllipse;margin=3;whiteSpace=wrap;html=1;align=center;" parent="1" vertex="1">
          <mxGeometry x="425" y="847.5" width="100" height="40" as="geometry" />
        </mxCell>
        <mxCell id="_4vCToPrs3ZwvSauzwrv-2" value="TÃ­tulo" style="ellipse;whiteSpace=wrap;html=1;align=center;" parent="1" vertex="1">
          <mxGeometry x="425" y="767.5" width="100" height="40" as="geometry" />
        </mxCell>
        <mxCell id="_4vCToPrs3ZwvSauzwrv-7" value="Objetivos" style="ellipse;shape=doubleEllipse;margin=3;whiteSpace=wrap;html=1;align=center;" parent="1" vertex="1">
          <mxGeometry x="428" y="887.5" width="100" height="40" as="geometry" />
        </mxCell>
        <mxCell id="_4vCToPrs3ZwvSauzwrv-8" value="ID-HistÃ³ria" style="ellipse;whiteSpace=wrap;html=1;align=center;fontStyle=4;" parent="1" vertex="1">
          <mxGeometry x="730" y="790" width="100" height="40" as="geometry" />
        </mxCell>
        <mxCell id="_4vCToPrs3ZwvSauzwrv-9" value="TÃ­tulo" style="ellipse;whiteSpace=wrap;html=1;align=center;" parent="1" vertex="1">
          <mxGeometry x="730" y="830" width="100" height="40" as="geometry" />
        </mxCell>
        <mxCell id="_4vCToPrs3ZwvSauzwrv-10" value="Enredo" style="ellipse;whiteSpace=wrap;html=1;align=center;" parent="1" vertex="1">
          <mxGeometry x="730" y="870" width="100" height="40" as="geometry" />
        </mxCell>
        <mxCell id="_4vCToPrs3ZwvSauzwrv-11" value="ID-Objetivo" style="ellipse;whiteSpace=wrap;html=1;align=center;fontStyle=4;" parent="1" vertex="1">
          <mxGeometry x="920" y="560" width="100" height="40" as="geometry" />
        </mxCell>
        <mxCell id="_4vCToPrs3ZwvSauzwrv-12" value="TÃ­tulo" style="ellipse;whiteSpace=wrap;html=1;align=center;" parent="1" vertex="1">
          <mxGeometry x="920" y="600" width="100" height="40" as="geometry" />
        </mxCell>
        <mxCell id="_4vCToPrs3ZwvSauzwrv-13" value="Retorno em XP" style="ellipse;whiteSpace=wrap;html=1;align=center;" parent="1" vertex="1">
          <mxGeometry x="922.5" y="639.75" width="100" height="40" as="geometry" />
        </mxCell>
        <mxCell id="_4vCToPrs3ZwvSauzwrv-15" value="Retorno em Dinheiro" style="ellipse;whiteSpace=wrap;html=1;align=center;" parent="1" vertex="1">
          <mxGeometry x="922.5" y="680" width="100" height="40" as="geometry" />
        </mxCell>
        <mxCell id="_4vCToPrs3ZwvSauzwrv-16" value="" style="endArrow=none;html=1;rounded=0;exitX=0.5;exitY=0;exitDx=0;exitDy=0;entryX=0;entryY=1;entryDx=0;entryDy=0;" parent="1" source="_4vCToPrs3ZwvSauzwrv-1" target="y91Bqe_7xXxEDmseq83t-313" edge="1">
          <mxGeometry relative="1" as="geometry">
            <mxPoint x="980" y="750" as="sourcePoint" />
            <mxPoint x="1140" y="750" as="targetPoint" />
          </mxGeometry>
        </mxCell>
        <mxCell id="_4vCToPrs3ZwvSauzwrv-17" value="" style="endArrow=none;html=1;rounded=0;exitX=0.5;exitY=1;exitDx=0;exitDy=0;entryX=0.5;entryY=0;entryDx=0;entryDy=0;" parent="1" source="y91Bqe_7xXxEDmseq83t-322" target="_4vCToPrs3ZwvSauzwrv-8" edge="1">
          <mxGeometry relative="1" as="geometry">
            <mxPoint x="900" y="810" as="sourcePoint" />
            <mxPoint x="870" y="780" as="targetPoint" />
          </mxGeometry>
        </mxCell>
        <mxCell id="_4vCToPrs3ZwvSauzwrv-18" value="" style="endArrow=none;html=1;rounded=0;exitX=1;exitY=0.5;exitDx=0;exitDy=0;entryX=0;entryY=0.5;entryDx=0;entryDy=0;" parent="1" source="yl1Z2EMh4tdtqLIf2lp5-43" target="_4vCToPrs3ZwvSauzwrv-11" edge="1">
          <mxGeometry relative="1" as="geometry">
            <mxPoint x="1070" y="580" as="sourcePoint" />
            <mxPoint x="1230" y="580" as="targetPoint" />
          </mxGeometry>
        </mxCell>
        <mxCell id="_4vCToPrs3ZwvSauzwrv-19" value="" style="shape=link;html=1;rounded=0;exitX=1;exitY=0.5;exitDx=0;exitDy=0;entryX=0;entryY=0.5;entryDx=0;entryDy=0;" parent="1" source="yl1Z2EMh4tdtqLIf2lp5-42" target="yl1Z2EMh4tdtqLIf2lp5-43" edge="1">
          <mxGeometry relative="1" as="geometry">
            <mxPoint x="520" y="600" as="sourcePoint" />
            <mxPoint x="680" y="600" as="targetPoint" />
          </mxGeometry>
        </mxCell>
        <mxCell id="_4vCToPrs3ZwvSauzwrv-20" value="N" style="resizable=0;html=1;whiteSpace=wrap;align=right;verticalAlign=bottom;" parent="_4vCToPrs3ZwvSauzwrv-19" connectable="0" vertex="1">
          <mxGeometry x="1" relative="1" as="geometry">
            <mxPoint x="-19" y="-1" as="offset" />
          </mxGeometry>
        </mxCell>
        <mxCell id="_4vCToPrs3ZwvSauzwrv-21" value="HistÃ³ria" style="ellipse;whiteSpace=wrap;html=1;align=center;" parent="1" vertex="1">
          <mxGeometry x="428" y="927.82" width="100" height="40" as="geometry" />
        </mxCell>
        <mxCell id="_4vCToPrs3ZwvSauzwrv-22" value="RegiÃ£o" style="ellipse;whiteSpace=wrap;html=1;align=center;" parent="1" vertex="1">
          <mxGeometry x="425" y="966.5" width="100" height="40" as="geometry" />
        </mxCell>
        <mxCell id="_4vCToPrs3ZwvSauzwrv-24" value="MissÃ£o Requisito" style="ellipse;shape=doubleEllipse;margin=3;whiteSpace=wrap;html=1;align=center;" parent="1" vertex="1">
          <mxGeometry x="425" y="1006.5" width="100" height="40" as="geometry" />
        </mxCell>
        <mxCell id="_4vCToPrs3ZwvSauzwrv-25" value="Ã© prÃ©-requisito" style="text;strokeColor=none;fillColor=none;spacingLeft=4;spacingRight=4;overflow=hidden;rotatable=0;points=[[0,0.5],[1,0.5]];portConstraint=eastwest;fontSize=12;whiteSpace=wrap;html=1;" parent="1" vertex="1">
          <mxGeometry x="698" y="616" width="82" height="30" as="geometry" />
        </mxCell>
        <mxCell id="_4vCToPrs3ZwvSauzwrv-26" value="possui&amp;nbsp; prÃ©-requisito" style="text;strokeColor=none;fillColor=none;spacingLeft=4;spacingRight=4;overflow=hidden;rotatable=0;points=[[0,0.5],[1,0.5]];portConstraint=eastwest;fontSize=12;whiteSpace=wrap;html=1;" parent="1" vertex="1">
          <mxGeometry x="700" y="677.75" width="114" height="30" as="geometry" />
        </mxCell>
        <mxCell id="_4vCToPrs3ZwvSauzwrv-27" value="" style="endArrow=none;html=1;rounded=0;exitX=0.5;exitY=1;exitDx=0;exitDy=0;entryX=0.5;entryY=0;entryDx=0;entryDy=0;" parent="1" source="y91Bqe_7xXxEDmseq83t-313" target="y91Bqe_7xXxEDmseq83t-321" edge="1">
          <mxGeometry relative="1" as="geometry">
            <mxPoint x="570" y="790" as="sourcePoint" />
            <mxPoint x="730" y="790" as="targetPoint" />
          </mxGeometry>
        </mxCell>
        <mxCell id="_4vCToPrs3ZwvSauzwrv-28" value="1" style="resizable=0;html=1;whiteSpace=wrap;align=right;verticalAlign=bottom;" parent="_4vCToPrs3ZwvSauzwrv-27" connectable="0" vertex="1">
          <mxGeometry x="1" relative="1" as="geometry">
            <mxPoint x="11" y="-8" as="offset" />
          </mxGeometry>
        </mxCell>
        <mxCell id="_4vCToPrs3ZwvSauzwrv-29" value="1" style="resizable=0;html=1;whiteSpace=wrap;align=right;verticalAlign=bottom;" parent="1" connectable="0" vertex="1">
          <mxGeometry x="704" y="746.4966666666668" as="geometry" />
        </mxCell>
        <mxCell id="_4vCToPrs3ZwvSauzwrv-30" value="(1,3)" style="resizable=0;html=1;whiteSpace=wrap;align=right;verticalAlign=bottom;" parent="1" connectable="0" vertex="1">
          <mxGeometry x="698" y="650.0042857142857" as="geometry" />
        </mxCell>
        <mxCell id="_4vCToPrs3ZwvSauzwrv-32" value="(1,3)" style="resizable=0;html=1;whiteSpace=wrap;align=right;verticalAlign=bottom;" parent="1" connectable="0" vertex="1">
          <mxGeometry x="698" y="683.7542857142857" as="geometry" />
        </mxCell>
        <mxCell id="_4vCToPrs3ZwvSauzwrv-33" value="1" style="resizable=0;html=1;whiteSpace=wrap;align=right;verticalAlign=bottom;" parent="1" connectable="0" vertex="1">
          <mxGeometry x="622" y="631.7142857142858" as="geometry" />
        </mxCell>
        <mxCell id="_4vCToPrs3ZwvSauzwrv-34" value="ID-DiÃ¡logo" style="ellipse;whiteSpace=wrap;html=1;align=center;fontStyle=4;" parent="1" vertex="1">
          <mxGeometry x="560" y="413" width="100" height="40" as="geometry" />
        </mxCell>
        <mxCell id="_4vCToPrs3ZwvSauzwrv-35" value="DescriÃ§Ã£o" style="ellipse;whiteSpace=wrap;html=1;align=center;" parent="1" vertex="1">
          <mxGeometry x="560" y="373" width="100" height="40" as="geometry" />
        </mxCell>
        <mxCell id="_4vCToPrs3ZwvSauzwrv-36" value="Linhas de Fala" style="ellipse;shape=doubleEllipse;margin=3;whiteSpace=wrap;html=1;align=center;" parent="1" vertex="1">
          <mxGeometry x="560" y="333" width="100" height="40" as="geometry" />
        </mxCell>
        <mxCell id="_4vCToPrs3ZwvSauzwrv-37" value="" style="endArrow=none;html=1;rounded=0;exitX=0.5;exitY=0;exitDx=0;exitDy=0;entryX=0.5;entryY=1;entryDx=0;entryDy=0;" parent="1" source="y91Bqe_7xXxEDmseq83t-308" target="_4vCToPrs3ZwvSauzwrv-34" edge="1">
          <mxGeometry relative="1" as="geometry">
            <mxPoint x="800" y="370" as="sourcePoint" />
            <mxPoint x="960" y="370" as="targetPoint" />
          </mxGeometry>
        </mxCell>
        <mxCell id="_4vCToPrs3ZwvSauzwrv-38" value="1" style="resizable=0;html=1;whiteSpace=wrap;align=right;verticalAlign=bottom;" parent="1" connectable="0" vertex="1">
          <mxGeometry x="705" y="507.88428571428574" as="geometry" />
        </mxCell>
        <mxCell id="_4vCToPrs3ZwvSauzwrv-39" value="ID-DiÃ¡logo" style="ellipse;whiteSpace=wrap;html=1;align=center;fontStyle=4;" parent="1" vertex="1">
          <mxGeometry x="960" y="413" width="100" height="40" as="geometry" />
        </mxCell>
        <mxCell id="_4vCToPrs3ZwvSauzwrv-40" value="ID-Linha-de-Fala" style="ellipse;whiteSpace=wrap;html=1;align=center;fontStyle=4;" parent="1" vertex="1">
          <mxGeometry x="960" y="373" width="100" height="40" as="geometry" />
        </mxCell>
        <mxCell id="_4vCToPrs3ZwvSauzwrv-41" value="Texto de Fala" style="ellipse;whiteSpace=wrap;html=1;align=center;" parent="1" vertex="1">
          <mxGeometry x="960" y="333" width="100" height="40" as="geometry" />
        </mxCell>
        <mxCell id="_4vCToPrs3ZwvSauzwrv-43" value="" style="endArrow=none;html=1;rounded=0;exitX=0.5;exitY=0;exitDx=0;exitDy=0;entryX=0.5;entryY=1;entryDx=0;entryDy=0;" parent="1" source="VzG8-4p2IzFKK54a7V07-26" target="_4vCToPrs3ZwvSauzwrv-39" edge="1">
          <mxGeometry relative="1" as="geometry">
            <mxPoint x="1120" y="480" as="sourcePoint" />
            <mxPoint x="1280" y="480" as="targetPoint" />
          </mxGeometry>
        </mxCell>
        <mxCell id="_4vCToPrs3ZwvSauzwrv-54" value="ID-RegiÃ£o" style="ellipse;whiteSpace=wrap;html=1;align=center;fontStyle=4;" parent="1" vertex="1">
          <mxGeometry x="0.48999999999999844" y="214" width="100" height="40" as="geometry" />
        </mxCell>
        <mxCell id="_4vCToPrs3ZwvSauzwrv-55" value="ID-Mapa" style="ellipse;whiteSpace=wrap;html=1;align=center;fontStyle=4;" parent="1" vertex="1">
          <mxGeometry y="173.75" width="100" height="40" as="geometry" />
        </mxCell>
        <mxCell id="_4vCToPrs3ZwvSauzwrv-56" value="Nome" style="ellipse;whiteSpace=wrap;html=1;align=center;" parent="1" vertex="1">
          <mxGeometry x="0.48999999999999844" y="133.75" width="100" height="40" as="geometry" />
        </mxCell>
        <mxCell id="_4vCToPrs3ZwvSauzwrv-57" value="RegiÃµes Vizinhas" style="ellipse;shape=doubleEllipse;margin=3;whiteSpace=wrap;html=1;align=center;" parent="1" vertex="1">
          <mxGeometry x="0.4900000000000002" y="53.75" width="100" height="40" as="geometry" />
        </mxCell>
        <mxCell id="_4vCToPrs3ZwvSauzwrv-58" value="Estabelecimentos" style="ellipse;shape=doubleEllipse;margin=3;whiteSpace=wrap;html=1;align=center;" parent="1" vertex="1">
          <mxGeometry x="0.4900000000000091" y="13.750000000000004" width="100" height="40" as="geometry" />
        </mxCell>
        <mxCell id="_4vCToPrs3ZwvSauzwrv-59" value="DescriÃ§Ã£o" style="ellipse;whiteSpace=wrap;html=1;align=center;" parent="1" vertex="1">
          <mxGeometry x="0.490000000000002" y="93.75" width="100" height="40" as="geometry" />
        </mxCell>
        <mxCell id="_4vCToPrs3ZwvSauzwrv-60" value="" style="endArrow=none;html=1;rounded=0;exitX=1;exitY=1;exitDx=0;exitDy=0;entryX=0;entryY=0;entryDx=0;entryDy=0;" parent="1" source="_4vCToPrs3ZwvSauzwrv-54" target="y91Bqe_7xXxEDmseq83t-95" edge="1">
          <mxGeometry relative="1" as="geometry">
            <mxPoint x="-10" y="290" as="sourcePoint" />
            <mxPoint x="150" y="290" as="targetPoint" />
          </mxGeometry>
        </mxCell>
        <mxCell id="_4vCToPrs3ZwvSauzwrv-61" value="Ã© regiÃ£o vizinha" style="text;strokeColor=none;fillColor=none;spacingLeft=4;spacingRight=4;overflow=hidden;rotatable=0;points=[[0,0.5],[1,0.5]];portConstraint=eastwest;fontSize=12;whiteSpace=wrap;html=1;" parent="1" vertex="1">
          <mxGeometry x="234" y="302.88" width="87" height="30" as="geometry" />
        </mxCell>
        <mxCell id="_4vCToPrs3ZwvSauzwrv-62" value="possui regiÃ£o vizinha" style="text;strokeColor=none;fillColor=none;spacingLeft=4;spacingRight=4;overflow=hidden;rotatable=0;points=[[0,0.5],[1,0.5]];portConstraint=eastwest;fontSize=12;whiteSpace=wrap;html=1;" parent="1" vertex="1">
          <mxGeometry x="213" y="246.25" width="120" height="30" as="geometry" />
        </mxCell>
        <mxCell id="_4vCToPrs3ZwvSauzwrv-63" value="ID-Estab" style="ellipse;whiteSpace=wrap;html=1;align=center;fontStyle=4;" parent="1" vertex="1">
          <mxGeometry x="549" y="186.75" width="100" height="40" as="geometry" />
        </mxCell>
        <mxCell id="_4vCToPrs3ZwvSauzwrv-64" value="ID-RegiÃ£o" style="ellipse;whiteSpace=wrap;html=1;align=center;fontStyle=4;" parent="1" vertex="1">
          <mxGeometry x="548" y="106.75" width="100" height="40" as="geometry" />
        </mxCell>
        <mxCell id="_4vCToPrs3ZwvSauzwrv-66" value="ID-Inst-Estab" style="ellipse;whiteSpace=wrap;html=1;align=center;fontStyle=4;" parent="1" vertex="1">
          <mxGeometry x="548" y="146.75" width="100" height="40" as="geometry" />
        </mxCell>
        <mxCell id="_4vCToPrs3ZwvSauzwrv-67" value="ID-Inst-NPC-Dono" style="ellipse;whiteSpace=wrap;html=1;align=center;fontStyle=4;" parent="1" vertex="1">
          <mxGeometry x="548" y="66.75" width="100" height="40" as="geometry" />
        </mxCell>
        <mxCell id="_4vCToPrs3ZwvSauzwrv-68" value="" style="endArrow=none;html=1;rounded=0;exitX=0.5;exitY=0;exitDx=0;exitDy=0;entryX=0.5;entryY=1;entryDx=0;entryDy=0;" parent="1" source="y91Bqe_7xXxEDmseq83t-288" target="_4vCToPrs3ZwvSauzwrv-63" edge="1">
          <mxGeometry relative="1" as="geometry">
            <mxPoint x="748" y="163" as="sourcePoint" />
            <mxPoint x="908" y="163" as="targetPoint" />
          </mxGeometry>
        </mxCell>
        <mxCell id="_4vCToPrs3ZwvSauzwrv-69" value="1" style="resizable=0;html=1;whiteSpace=wrap;align=right;verticalAlign=bottom;" parent="1" connectable="0" vertex="1">
          <mxGeometry x="286.8796540495787" y="342.80018957046764" as="geometry" />
        </mxCell>
        <mxCell id="_4vCToPrs3ZwvSauzwrv-70" value="ID-Estab" style="ellipse;whiteSpace=wrap;html=1;align=center;fontStyle=4;" parent="1" vertex="1">
          <mxGeometry x="900" y="186.75" width="100" height="40" as="geometry" />
        </mxCell>
        <mxCell id="_4vCToPrs3ZwvSauzwrv-71" value="Tipo" style="ellipse;whiteSpace=wrap;html=1;align=center;" parent="1" vertex="1">
          <mxGeometry x="900" y="146.75" width="100" height="40" as="geometry" />
        </mxCell>
        <mxCell id="_4vCToPrs3ZwvSauzwrv-72" value="DescriÃ§Ã£o" style="ellipse;whiteSpace=wrap;html=1;align=center;" parent="1" vertex="1">
          <mxGeometry x="900" y="106.75" width="100" height="40" as="geometry" />
        </mxCell>
        <mxCell id="_4vCToPrs3ZwvSauzwrv-73" value="" style="endArrow=none;html=1;rounded=0;exitX=0.5;exitY=0;exitDx=0;exitDy=0;entryX=0.5;entryY=1;entryDx=0;entryDy=0;" parent="1" source="y91Bqe_7xXxEDmseq83t-287" target="_4vCToPrs3ZwvSauzwrv-70" edge="1">
          <mxGeometry relative="1" as="geometry">
            <mxPoint x="940" y="333" as="sourcePoint" />
            <mxPoint x="1100" y="333" as="targetPoint" />
          </mxGeometry>
        </mxCell>
        <mxCell id="_4vCToPrs3ZwvSauzwrv-74" value="ID-Mapa" style="ellipse;whiteSpace=wrap;html=1;align=center;fontStyle=4;" parent="1" vertex="1">
          <mxGeometry x="314" y="48.88" width="100" height="40" as="geometry" />
        </mxCell>
        <mxCell id="_4vCToPrs3ZwvSauzwrv-75" value="Nome" style="ellipse;whiteSpace=wrap;html=1;align=center;" parent="1" vertex="1">
          <mxGeometry x="314" y="8.880000000000003" width="100" height="40" as="geometry" />
        </mxCell>
        <mxCell id="_4vCToPrs3ZwvSauzwrv-76" value="RegiÃµes" style="ellipse;shape=doubleEllipse;margin=3;whiteSpace=wrap;html=1;align=center;" parent="1" vertex="1">
          <mxGeometry x="314" y="-31.120000000000005" width="100" height="40" as="geometry" />
        </mxCell>
        <mxCell id="_4vCToPrs3ZwvSauzwrv-77" value="" style="endArrow=none;html=1;rounded=0;exitX=0.566;exitY=0.012;exitDx=0;exitDy=0;entryX=0.5;entryY=1;entryDx=0;entryDy=0;exitPerimeter=0;" parent="1" source="y91Bqe_7xXxEDmseq83t-278" target="_4vCToPrs3ZwvSauzwrv-74" edge="1">
          <mxGeometry relative="1" as="geometry">
            <mxPoint x="350" y="100" as="sourcePoint" />
            <mxPoint x="510" y="100" as="targetPoint" />
          </mxGeometry>
        </mxCell>
        <mxCell id="tiVlSbfcnG_4zIivBW_u-1" value="ID-Ataque" style="ellipse;whiteSpace=wrap;html=1;align=center;fontStyle=4;" vertex="1" parent="1">
          <mxGeometry x="-650" y="-39.91" width="100" height="40" as="geometry" />
        </mxCell>
        <mxCell id="tiVlSbfcnG_4zIivBW_u-2" value="DescriÃ§Ã£o" style="ellipse;whiteSpace=wrap;html=1;align=center;" vertex="1" parent="1">
          <mxGeometry x="-650" y="-81.12" width="100" height="40" as="geometry" />
        </mxCell>
        <mxCell id="tiVlSbfcnG_4zIivBW_u-3" value="Dano" style="ellipse;whiteSpace=wrap;html=1;align=center;" vertex="1" parent="1">
          <mxGeometry x="-650" y="-121.12" width="100" height="40" as="geometry" />
        </mxCell>
        <mxCell id="tiVlSbfcnG_4zIivBW_u-4" value="" style="endArrow=none;html=1;rounded=0;exitX=0.5;exitY=0;exitDx=0;exitDy=0;entryX=0.5;entryY=1;entryDx=0;entryDy=0;" edge="1" parent="1" source="y91Bqe_7xXxEDmseq83t-46" target="tiVlSbfcnG_4zIivBW_u-1">
          <mxGeometry relative="1" as="geometry">
            <mxPoint x="-460" as="sourcePoint" />
            <mxPoint x="-300" as="targetPoint" />
          </mxGeometry>
        </mxCell>
        <mxCell id="tiVlSbfcnG_4zIivBW_u-5" value="ID-Animal" style="ellipse;whiteSpace=wrap;html=1;align=center;fontStyle=4;" vertex="1" parent="1">
          <mxGeometry x="-360" y="-100" width="100" height="40" as="geometry" />
        </mxCell>
        <mxCell id="tiVlSbfcnG_4zIivBW_u-7" value="Textura" style="ellipse;whiteSpace=wrap;html=1;align=center;" vertex="1" parent="1">
          <mxGeometry x="-360" y="-340" width="100" height="40" as="geometry" />
        </mxCell>
        <mxCell id="tiVlSbfcnG_4zIivBW_u-8" value="Vida MÃ¡x" style="ellipse;whiteSpace=wrap;html=1;align=center;" vertex="1" parent="1">
          <mxGeometry x="-360" y="-260" width="100" height="40" as="geometry" />
        </mxCell>
        <mxCell id="tiVlSbfcnG_4zIivBW_u-9" value="Stamina MÃ¡x" style="ellipse;whiteSpace=wrap;html=1;align=center;" vertex="1" parent="1">
          <mxGeometry x="-360" y="-300" width="100" height="40" as="geometry" />
        </mxCell>
        <mxCell id="tiVlSbfcnG_4zIivBW_u-10" value="Velocidade" style="ellipse;whiteSpace=wrap;html=1;align=center;" vertex="1" parent="1">
          <mxGeometry x="-360" y="-220" width="100" height="40" as="geometry" />
        </mxCell>
        <mxCell id="tiVlSbfcnG_4zIivBW_u-12" value="EspÃ©cie" style="ellipse;whiteSpace=wrap;html=1;align=center;" vertex="1" parent="1">
          <mxGeometry x="-360" y="-140" width="100" height="40" as="geometry" />
        </mxCell>
        <mxCell id="tiVlSbfcnG_4zIivBW_u-13" value="Habitat" style="ellipse;shape=doubleEllipse;margin=3;whiteSpace=wrap;html=1;align=center;" vertex="1" parent="1">
          <mxGeometry x="-360" y="-180" width="100" height="40" as="geometry" />
        </mxCell>
        <mxCell id="tiVlSbfcnG_4zIivBW_u-15" value="" style="endArrow=none;html=1;rounded=0;exitX=1;exitY=0.5;exitDx=0;exitDy=0;entryX=0;entryY=0.5;entryDx=0;entryDy=0;" edge="1" parent="1" source="tiVlSbfcnG_4zIivBW_u-5" target="MHSS6djbWjyrjED063CA-14">
          <mxGeometry relative="1" as="geometry">
            <mxPoint x="-120" y="-130" as="sourcePoint" />
            <mxPoint x="40" y="-130" as="targetPoint" />
          </mxGeometry>
        </mxCell>
        <mxCell id="tiVlSbfcnG_4zIivBW_u-16" value="ID-Animal" style="ellipse;whiteSpace=wrap;html=1;align=center;fontStyle=4;" vertex="1" parent="1">
          <mxGeometry x="110" y="-150" width="100" height="40" as="geometry" />
        </mxCell>
        <mxCell id="tiVlSbfcnG_4zIivBW_u-17" value="ID-Inst-Animal" style="ellipse;whiteSpace=wrap;html=1;align=center;fontStyle=4;" vertex="1" parent="1">
          <mxGeometry x="110" y="-190" width="100" height="40" as="geometry" />
        </mxCell>
        <mxCell id="tiVlSbfcnG_4zIivBW_u-18" value="Vida Atual" style="ellipse;whiteSpace=wrap;html=1;align=center;" vertex="1" parent="1">
          <mxGeometry x="110" y="-230" width="100" height="40" as="geometry" />
        </mxCell>
        <mxCell id="tiVlSbfcnG_4zIivBW_u-19" value="Stamina Atual" style="ellipse;whiteSpace=wrap;html=1;align=center;" vertex="1" parent="1">
          <mxGeometry x="110" y="-270" width="100" height="40" as="geometry" />
        </mxCell>
        <mxCell id="tiVlSbfcnG_4zIivBW_u-20" value="" style="endArrow=none;html=1;rounded=0;entryX=0.5;entryY=1;entryDx=0;entryDy=0;exitX=0.5;exitY=0;exitDx=0;exitDy=0;" edge="1" parent="1" source="y91Bqe_7xXxEDmseq83t-78" target="tiVlSbfcnG_4zIivBW_u-16">
          <mxGeometry relative="1" as="geometry">
            <mxPoint x="230" y="-100" as="sourcePoint" />
            <mxPoint x="410" y="-100" as="targetPoint" />
          </mxGeometry>
        </mxCell>
        <mxCell id="tiVlSbfcnG_4zIivBW_u-21" value="ID-Personagem" style="ellipse;whiteSpace=wrap;html=1;align=center;fontStyle=4;" vertex="1" parent="1">
          <mxGeometry x="-350" y="829.5" width="100" height="40" as="geometry" />
        </mxCell>
        <mxCell id="tiVlSbfcnG_4zIivBW_u-23" value="Vida MÃ¡x" style="ellipse;whiteSpace=wrap;html=1;align=center;" vertex="1" parent="1">
          <mxGeometry x="-350" y="989.5" width="100" height="40" as="geometry" />
        </mxCell>
        <mxCell id="tiVlSbfcnG_4zIivBW_u-24" value="InventÃ¡rio" style="ellipse;whiteSpace=wrap;html=1;align=center;" vertex="1" parent="1">
          <mxGeometry x="-350" y="949.5" width="100" height="40" as="geometry" />
        </mxCell>
        <mxCell id="tiVlSbfcnG_4zIivBW_u-25" value="Velocidade" style="ellipse;whiteSpace=wrap;html=1;align=center;" vertex="1" parent="1">
          <mxGeometry x="-350" y="909.5" width="100" height="40" as="geometry" />
        </mxCell>
        <mxCell id="tiVlSbfcnG_4zIivBW_u-26" value="Nome" style="ellipse;whiteSpace=wrap;html=1;align=center;" vertex="1" parent="1">
          <mxGeometry x="-350" y="869.5" width="100" height="40" as="geometry" />
        </mxCell>
        <mxCell id="tiVlSbfcnG_4zIivBW_u-29" value="" style="endArrow=none;html=1;rounded=0;entryX=0;entryY=0.25;entryDx=0;entryDy=0;exitX=1;exitY=0.5;exitDx=0;exitDy=0;" edge="1" parent="1" source="tiVlSbfcnG_4zIivBW_u-21" target="y91Bqe_7xXxEDmseq83t-129">
          <mxGeometry relative="1" as="geometry">
            <mxPoint x="-460" y="830" as="sourcePoint" />
            <mxPoint x="-300" y="830" as="targetPoint" />
          </mxGeometry>
        </mxCell>
        <mxCell id="tiVlSbfcnG_4zIivBW_u-30" value="" style="endArrow=none;html=1;rounded=0;entryX=0.161;entryY=0.005;entryDx=0;entryDy=0;entryPerimeter=0;exitX=0.003;exitY=0.331;exitDx=0;exitDy=0;exitPerimeter=0;" edge="1" parent="1" source="y91Bqe_7xXxEDmseq83t-130" target="edTjm4dISCqz6r1TiSTo-56">
          <mxGeometry relative="1" as="geometry">
            <mxPoint x="87" y="820" as="sourcePoint" />
            <mxPoint x="240" y="800" as="targetPoint" />
            <Array as="points">
              <mxPoint x="87" y="800" />
              <mxPoint x="230" y="800" />
            </Array>
          </mxGeometry>
        </mxCell>
        <mxCell id="tiVlSbfcnG_4zIivBW_u-34" value="ID-Personagem" style="ellipse;whiteSpace=wrap;html=1;align=center;fontStyle=4;" vertex="1" parent="1">
          <mxGeometry x="-50" y="566.88" width="100" height="40" as="geometry" />
        </mxCell>
        <mxCell id="tiVlSbfcnG_4zIivBW_u-35" value="XP" style="ellipse;whiteSpace=wrap;html=1;align=center;" vertex="1" parent="1">
          <mxGeometry x="-49" y="606" width="100" height="40" as="geometry" />
        </mxCell>
        <mxCell id="tiVlSbfcnG_4zIivBW_u-36" value="Vida atual" style="ellipse;whiteSpace=wrap;html=1;align=center;" vertex="1" parent="1">
          <mxGeometry x="-46.75" y="686.5" width="100" height="40" as="geometry" />
        </mxCell>
        <mxCell id="tiVlSbfcnG_4zIivBW_u-37" value="Stamina MÃ¡x" style="ellipse;whiteSpace=wrap;html=1;align=center;" vertex="1" parent="1">
          <mxGeometry x="-50" y="727.5" width="100" height="40" as="geometry" />
        </mxCell>
        <mxCell id="tiVlSbfcnG_4zIivBW_u-38" value="Stamina Atual" style="ellipse;whiteSpace=wrap;html=1;align=center;" vertex="1" parent="1">
          <mxGeometry x="-50" y="768" width="100" height="40" as="geometry" />
        </mxCell>
        <mxCell id="tiVlSbfcnG_4zIivBW_u-39" value="Habilidades" style="ellipse;shape=doubleEllipse;margin=3;whiteSpace=wrap;html=1;align=center;" vertex="1" parent="1">
          <mxGeometry x="-50" y="809" width="100" height="40" as="geometry" />
        </mxCell>
        <mxCell id="tiVlSbfcnG_4zIivBW_u-40" value="Dinheiro" style="ellipse;whiteSpace=wrap;html=1;align=center;" vertex="1" parent="1">
          <mxGeometry x="-49" y="646" width="100" height="40" as="geometry" />
        </mxCell>
        <mxCell id="tiVlSbfcnG_4zIivBW_u-42" value="" style="endArrow=none;html=1;rounded=0;exitX=0;exitY=1;exitDx=0;exitDy=0;entryX=0.5;entryY=0;entryDx=0;entryDy=0;" edge="1" parent="1" source="edTjm4dISCqz6r1TiSTo-55" target="tiVlSbfcnG_4zIivBW_u-34">
          <mxGeometry relative="1" as="geometry">
            <mxPoint x="-50" y="540" as="sourcePoint" />
            <mxPoint x="110" y="540" as="targetPoint" />
          </mxGeometry>
        </mxCell>
        <mxCell id="tiVlSbfcnG_4zIivBW_u-43" value="&lt;div&gt;ID-Gangue&lt;/div&gt;" style="ellipse;whiteSpace=wrap;html=1;align=center;fontStyle=4;" vertex="1" parent="1">
          <mxGeometry x="-591" y="949.5" width="100" height="40" as="geometry" />
        </mxCell>
        <mxCell id="tiVlSbfcnG_4zIivBW_u-44" value="&lt;div&gt;Nome&lt;/div&gt;" style="ellipse;whiteSpace=wrap;html=1;align=center;" vertex="1" parent="1">
          <mxGeometry x="-591" y="909.5" width="100" height="40" as="geometry" />
        </mxCell>
        <mxCell id="tiVlSbfcnG_4zIivBW_u-45" value="DescriÃ§Ã£o" style="ellipse;whiteSpace=wrap;html=1;align=center;" vertex="1" parent="1">
          <mxGeometry x="-591" y="869.5" width="100" height="40" as="geometry" />
        </mxCell>
        <mxCell id="tiVlSbfcnG_4zIivBW_u-46" value="&lt;div&gt;&lt;br&gt;&lt;/div&gt;&lt;div&gt;&lt;div&gt;&lt;span style=&quot;background-color: initial;&quot;&gt;LÃ­der&lt;/span&gt;&lt;/div&gt;&lt;div&gt;&lt;br&gt;&lt;/div&gt;&lt;/div&gt;" style="ellipse;whiteSpace=wrap;html=1;align=center;" vertex="1" parent="1">
          <mxGeometry x="-591" y="829.5" width="100" height="40" as="geometry" />
        </mxCell>
        <mxCell id="tiVlSbfcnG_4zIivBW_u-48" value="Membros" style="ellipse;whiteSpace=wrap;html=1;align=center;" vertex="1" parent="1">
          <mxGeometry x="-591" y="789.5" width="100" height="40" as="geometry" />
        </mxCell>
        <mxCell id="tiVlSbfcnG_4zIivBW_u-49" value="" style="endArrow=none;html=1;rounded=0;exitX=0.75;exitY=0;exitDx=0;exitDy=0;entryX=0.553;entryY=1.003;entryDx=0;entryDy=0;entryPerimeter=0;" edge="1" parent="1" source="edTjm4dISCqz6r1TiSTo-25" target="tiVlSbfcnG_4zIivBW_u-43">
          <mxGeometry relative="1" as="geometry">
            <mxPoint x="-670" y="920" as="sourcePoint" />
            <mxPoint x="-510" y="920" as="targetPoint" />
          </mxGeometry>
        </mxCell>
        <mxCell id="tiVlSbfcnG_4zIivBW_u-50" value="1" style="resizable=0;html=1;whiteSpace=wrap;align=right;verticalAlign=bottom;" connectable="0" vertex="1" parent="1">
          <mxGeometry x="-505.0021557369505" y="1056.9998240073373" as="geometry" />
        </mxCell>
        <mxCell id="tiVlSbfcnG_4zIivBW_u-52" value="N" style="resizable=0;html=1;whiteSpace=wrap;align=right;verticalAlign=bottom;" connectable="0" vertex="1" parent="1">
          <mxGeometry x="-240.0021557369505" y="1057.9998240073373" as="geometry" />
        </mxCell>
        <mxCell id="tiVlSbfcnG_4zIivBW_u-58" value="possui" style="shape=rhombus;double=1;perimeter=rhombusPerimeter;whiteSpace=wrap;html=1;align=center;" vertex="1" parent="1">
          <mxGeometry x="158.26999999999998" y="1040" width="123.49" height="60" as="geometry" />
        </mxCell>
        <mxCell id="tiVlSbfcnG_4zIivBW_u-59" value="" style="shape=link;html=1;rounded=0;exitX=0.5;exitY=1;exitDx=0;exitDy=0;entryX=0.5;entryY=0;entryDx=0;entryDy=0;" edge="1" parent="1" source="FQAgYsz1G8o2xN7O9MeR-2" target="tiVlSbfcnG_4zIivBW_u-58">
          <mxGeometry relative="1" as="geometry">
            <mxPoint x="140" y="1010" as="sourcePoint" />
            <mxPoint x="300" y="1010" as="targetPoint" />
          </mxGeometry>
        </mxCell>
        <mxCell id="tiVlSbfcnG_4zIivBW_u-62" value="" style="endArrow=none;html=1;rounded=0;exitX=0.5;exitY=1;exitDx=0;exitDy=0;entryX=0.5;entryY=0;entryDx=0;entryDy=0;" edge="1" parent="1" source="tiVlSbfcnG_4zIivBW_u-58" target="FQAgYsz1G8o2xN7O9MeR-8">
          <mxGeometry relative="1" as="geometry">
            <mxPoint x="220" y="1140" as="sourcePoint" />
            <mxPoint x="380" y="1140" as="targetPoint" />
          </mxGeometry>
        </mxCell>
        <mxCell id="tiVlSbfcnG_4zIivBW_u-63" value="ID-Arma" style="ellipse;whiteSpace=wrap;html=1;align=center;fontStyle=4;" vertex="1" parent="1">
          <mxGeometry x="420" y="1067" width="100" height="40" as="geometry" />
        </mxCell>
        <mxCell id="tiVlSbfcnG_4zIivBW_u-64" value="Nome" style="ellipse;whiteSpace=wrap;html=1;align=center;" vertex="1" parent="1">
          <mxGeometry x="420" y="1107" width="100" height="40" as="geometry" />
        </mxCell>
        <mxCell id="tiVlSbfcnG_4zIivBW_u-65" value="DescriÃ§Ã£o" style="ellipse;whiteSpace=wrap;html=1;align=center;" vertex="1" parent="1">
          <mxGeometry x="420" y="1147" width="100" height="40" as="geometry" />
        </mxCell>
        <mxCell id="tiVlSbfcnG_4zIivBW_u-66" value="Categoria" style="ellipse;whiteSpace=wrap;html=1;align=center;" vertex="1" parent="1">
          <mxGeometry x="420" y="1187" width="100" height="40" as="geometry" />
        </mxCell>
        <mxCell id="tiVlSbfcnG_4zIivBW_u-67" value="PreÃ§o" style="ellipse;whiteSpace=wrap;html=1;align=center;" vertex="1" parent="1">
          <mxGeometry x="420" y="1227" width="100" height="40" as="geometry" />
        </mxCell>
        <mxCell id="tiVlSbfcnG_4zIivBW_u-68" value="Peso" style="ellipse;whiteSpace=wrap;html=1;align=center;" vertex="1" parent="1">
          <mxGeometry x="420" y="1267.5" width="100" height="40" as="geometry" />
        </mxCell>
        <mxCell id="tiVlSbfcnG_4zIivBW_u-69" value="Durabilidade" style="ellipse;whiteSpace=wrap;html=1;align=center;" vertex="1" parent="1">
          <mxGeometry x="420" y="1307.5" width="100" height="40" as="geometry" />
        </mxCell>
        <mxCell id="tiVlSbfcnG_4zIivBW_u-70" value="Dano" style="ellipse;whiteSpace=wrap;html=1;align=center;" vertex="1" parent="1">
          <mxGeometry x="420" y="1347.5" width="100" height="40" as="geometry" />
        </mxCell>
        <mxCell id="tiVlSbfcnG_4zIivBW_u-71" value="ID-Arma-Fogo" style="ellipse;whiteSpace=wrap;html=1;align=center;fontStyle=4;" vertex="1" parent="1">
          <mxGeometry x="-162" y="1480" width="100" height="40" as="geometry" />
        </mxCell>
        <mxCell id="tiVlSbfcnG_4zIivBW_u-72" value="Velocidade Reload" style="ellipse;whiteSpace=wrap;html=1;align=center;" vertex="1" parent="1">
          <mxGeometry x="-162" y="1560" width="100" height="40" as="geometry" />
        </mxCell>
        <mxCell id="tiVlSbfcnG_4zIivBW_u-73" value="Velocidade Disparo" style="ellipse;whiteSpace=wrap;html=1;align=center;" vertex="1" parent="1">
          <mxGeometry x="-162" y="1520" width="100" height="40" as="geometry" />
        </mxCell>
        <mxCell id="tiVlSbfcnG_4zIivBW_u-76" value="" style="endArrow=none;html=1;rounded=0;exitX=0.5;exitY=0;exitDx=0;exitDy=0;entryX=0;entryY=0.5;entryDx=0;entryDy=0;" edge="1" parent="1" source="tiVlSbfcnG_4zIivBW_u-71" target="y91Bqe_7xXxEDmseq83t-158">
          <mxGeometry relative="1" as="geometry">
            <mxPoint x="10" y="1240" as="sourcePoint" />
            <mxPoint x="170" y="1240" as="targetPoint" />
          </mxGeometry>
        </mxCell>
        <mxCell id="tiVlSbfcnG_4zIivBW_u-77" value="" style="endArrow=none;html=1;rounded=0;exitX=1;exitY=0.5;exitDx=0;exitDy=0;entryX=0;entryY=0.5;entryDx=0;entryDy=0;" edge="1" parent="1" source="FQAgYsz1G8o2xN7O9MeR-8" target="tiVlSbfcnG_4zIivBW_u-63">
          <mxGeometry relative="1" as="geometry">
            <mxPoint x="60" y="1250" as="sourcePoint" />
            <mxPoint x="220" y="1250" as="targetPoint" />
          </mxGeometry>
        </mxCell>
        <mxCell id="tiVlSbfcnG_4zIivBW_u-80" value="" style="endArrow=none;html=1;rounded=0;exitX=0.5;exitY=0;exitDx=0;exitDy=0;entryX=0.25;entryY=1;entryDx=0;entryDy=0;" edge="1" parent="1" source="yl1Z2EMh4tdtqLIf2lp5-7" target="FQAgYsz1G8o2xN7O9MeR-2">
          <mxGeometry relative="1" as="geometry">
            <mxPoint x="-30" y="1130" as="sourcePoint" />
            <mxPoint x="130" y="1130" as="targetPoint" />
            <Array as="points">
              <mxPoint x="46" y="1010" />
              <mxPoint x="190" y="1010" />
            </Array>
          </mxGeometry>
        </mxCell>
        <mxCell id="tiVlSbfcnG_4zIivBW_u-81" value="" style="shape=link;html=1;rounded=0;exitX=0.5;exitY=1;exitDx=0;exitDy=0;entryX=0.5;entryY=0;entryDx=0;entryDy=0;" edge="1" parent="1" source="yl1Z2EMh4tdtqLIf2lp5-7" target="yl1Z2EMh4tdtqLIf2lp5-6">
          <mxGeometry relative="1" as="geometry">
            <mxPoint x="-10" y="1150" as="sourcePoint" />
            <mxPoint x="150" y="1150" as="targetPoint" />
          </mxGeometry>
        </mxCell>
        <mxCell id="_4vCToPrs3ZwvSauzwrv-4" value="NÃ­vel de Dificuldade" style="ellipse;whiteSpace=wrap;html=1;align=center;" parent="1" vertex="1">
          <mxGeometry x="428" y="807.5" width="100" height="40" as="geometry" />
        </mxCell>
        <mxCell id="tiVlSbfcnG_4zIivBW_u-83" value="(T, E)" style="text;strokeColor=none;fillColor=none;spacingLeft=4;spacingRight=4;overflow=hidden;rotatable=0;points=[[0,0.5],[1,0.5]];portConstraint=eastwest;fontSize=12;whiteSpace=wrap;html=1;" vertex="1" parent="1">
          <mxGeometry x="228" y="1358.5" width="40" height="30" as="geometry" />
        </mxCell>
      </root>
    </mxGraphModel>
  </diagram>
</mxfile>
